<?xml version="1.0" encoding="iso-8859-1"?>
<!-- Generator: Adobe Illustrator 23.0.1, SVG Export Plug-In . SVG Version: 6.00 Build 0)  -->
<svg version="1.1" id="Layer_1" xmlns="http://www.w3.org/2000/svg" xmlns:xlink="http://www.w3.org/1999/xlink" x="0px" y="0px"
	 viewBox="0 0 512 512" style="enable-background:new 0 0 512 512;" xml:space="preserve">
<g>
	<g id="Layer_1-2">
		
			<radialGradient id="SVGID_1_" cx="-484.9247" cy="235.6723" r="1.82" gradientTransform="matrix(75.3194 -66.1231 66.1231 75.3194 21241.375 -49486)" gradientUnits="userSpaceOnUse">
			<stop  offset="0" style="stop-color:#80BB42"/>
			<stop  offset="0.29" style="stop-color:#80BB42"/>
			<stop  offset="0.44" style="stop-color:#5EB146"/>
			<stop  offset="0.68" style="stop-color:#029347"/>
			<stop  offset="0.71" style="stop-color:#0B65AB"/>
			<stop  offset="0.9" style="stop-color:#209FDA"/>
			<stop  offset="1" style="stop-color:#28A4DD"/>
		</radialGradient>
		<polygon style="fill:url(#SVGID_1_);" points="292.951,249.887 393.089,161.975 481,262.113 380.862,350.025 		"/>
		<path style="fill:#60666C;" d="M43.692,248.7c1.374-0.023,2.468-1.156,2.445-2.529c-0.023-1.374-1.156-2.468-2.529-2.445
			c-1.341,0.023-2.422,1.104-2.445,2.445c-0.035,1.362,1.04,2.494,2.402,2.529C43.607,248.701,43.649,248.701,43.692,248.7"/>
		<path style="fill:#60666C;" d="M50.861,273.03c-1.362,0-2.466,1.104-2.466,2.466c0,1.362,1.104,2.466,2.466,2.466
			c1.362,0,2.466-1.104,2.466-2.466C53.328,274.134,52.223,273.03,50.861,273.03"/>
		<path style="fill:#60666C;" d="M54.54,262.328c0,2.09-0.815,2.968-3.114,2.968H48.75v-5.644c0-5.581-2.864-8.507-8.194-8.507
			c-4.855-0.395-9.112,3.22-9.507,8.076c-0.028,0.338-0.036,0.678-0.024,1.017c-0.21,2.722,0.921,5.375,3.031,7.107
			c2.257,1.484,4.18,1.798,8.361,1.798h9.26c4.87,0,7.629-1.839,7.629-6.772v-11.225H54.54V262.328z M44.089,265.296h-2.613
			c-3.888,0-5.539-1.547-5.539-5.121c-0.323-2.403,1.362-4.612,3.765-4.936c0.2-0.027,0.402-0.04,0.604-0.039
			c2.655,0,3.888,1.63,3.888,5.079L44.089,265.296z"/>
		<path style="fill:#60666C;" d="M37.944,248.7c1.374,0,2.487-1.114,2.487-2.487s-1.114-2.487-2.487-2.487l0,0
			c-1.374,0-2.487,1.114-2.487,2.487S36.57,248.7,37.944,248.7"/>
		<path style="fill:#60666C;" d="M78.013,260.238c0.172-4.857-3.626-8.934-8.483-9.105c-0.294-0.01-0.588-0.006-0.881,0.013h-3.846
			v3.951h4.18c2.424,0.001,4.388,1.968,4.387,4.392c0,0.195-0.013,0.389-0.039,0.583v5.121H60.999v3.951h17.014V260.238z"/>
		<path style="fill:#60666C;" d="M56.547,273.03c-1.362,0-2.466,1.104-2.466,2.466c0,1.362,1.104,2.466,2.466,2.466
			c1.362,0,2.466-1.104,2.466-2.466C59.013,274.134,57.909,273.03,56.547,273.03"/>
		<rect x="236.682" y="242.387" style="fill:#60666C;" width="4.619" height="26.755"/>
		<path style="fill:#60666C;" d="M238.229,273.03v4.473c1.179,0.221,2.375,0.34,3.574,0.355c6.417,0,9.531-2.926,9.531-8.967v-15.99
			h-4.808v16.032c0.313,2.357-1.345,4.522-3.702,4.835c-0.228,0.03-0.457,0.042-0.687,0.036c-1.145-0.003-2.282-0.193-3.365-0.564
			L238.229,273.03z"/>
		<rect x="254.407" y="245.251" style="fill:#60666C;" width="4.619" height="23.891"/>
		<path style="fill:#60666C;" d="M180.267,267.344c2.237,1.484,4.18,1.798,8.361,1.798h1.589c0,3.073-1.798,4.619-5.079,4.619
			c-1.778-0.001-3.544-0.298-5.226-0.878h-0.293v4.452c1.908,0.38,3.845,0.59,5.79,0.627c6.271,0,9.531-2.926,9.636-8.716h27.173
			c7.483,0,11.413-1.944,11.413-8.925c0.177-4.845-3.608-8.916-8.453-9.093c-0.339-0.012-0.678-0.005-1.016,0.022
			c-5.33,0-8.194,2.926-8.194,8.507v5.539h-4.18c0.683-1.345,1.021-2.839,0.982-4.348c0-3.951-2.508-8.507-9.49-8.507h-0.606
			l9.009-9.949h-5.602c-3.365,3.783-8.361,9.322-9.072,9.887v3.888h6.563c2.165-0.268,4.138,1.27,4.406,3.435
			c0.038,0.31,0.04,0.623,0.004,0.933c0,3.323-1.484,4.557-5.539,4.557h-7.483v-5.539c0-5.581-2.864-8.507-8.194-8.507
			c-4.86-0.337-9.073,3.329-9.411,8.189c-0.021,0.301-0.026,0.603-0.016,0.904C177.075,262.945,178.172,265.608,180.267,267.344
			 M220.65,260.238c0-3.449,1.212-5.079,3.888-5.079c2.424,0.001,4.388,1.968,4.387,4.392c0,0.195-0.013,0.39-0.039,0.583
			c0,3.595-1.63,5.121-5.476,5.121h-2.759V260.238z M186.412,255.096c2.655,0,3.846,1.63,3.846,5.079v5.017h-2.675
			c-3.888,0-5.539-1.526-5.539-5.121c-0.323-2.403,1.362-4.612,3.765-4.936C186.008,255.108,186.21,255.095,186.412,255.096"/>
		<path style="fill:#60666C;" d="M152.989,269.142c1.793,0.044,3.571-0.343,5.184-1.129c1.161-0.68,1.981-1.818,2.257-3.135
			c0.167-0.839,0.23-1.696,0.188-2.55v-19.899h-4.745v19.899c0,2.09-0.836,2.968-3.135,2.968h-1.129
			c-0.822-0.008-1.636-0.164-2.404-0.46c0.108-0.691,0.157-1.391,0.146-2.09v-9.845h-4.661v9.427c0,2.09-0.92,2.926-3.031,2.926
			c-0.802,0.002-1.6-0.125-2.362-0.376c0.131-0.759,0.187-1.529,0.167-2.299v-9.678h-4.661v9.427c0,1.839-0.46,2.613-1.798,2.864
			h-2.404c-0.355,0-1.191,0-1.191-0.418v-11.872h-4.661v12.29h-7.88c2.268-2.026,3.748-4.787,4.18-7.797
			c0-4.18-5.079-6.271-10.096-6.271s-10.096,2.09-10.096,6.271c0,2.989,2.655,6.271,4.18,7.797h-7.128v-5.539
			c0-5.581-2.885-8.507-8.215-8.507c-4.828-0.443-9.101,3.113-9.544,7.941c-0.035,0.383-0.045,0.767-0.03,1.151
			c-0.258,2.722,0.854,5.394,2.968,7.128c2.257,1.484,4.18,1.798,8.465,1.798h1.568c0,3.073-1.735,4.598-5.058,4.598
			c-1.777,0.007-3.544-0.283-5.226-0.857h-0.314v4.452c1.908,0.378,3.845,0.588,5.79,0.627c6.271,0,9.531-2.926,9.636-8.716h31.771
			c0.923,0.101,1.851,0.15,2.78,0.146c1.529,0.058,3.045-0.295,4.389-1.024c1.803,0.684,3.716,1.031,5.644,1.024
			c1.55,0.079,3.088-0.315,4.41-1.129c1.774,0.704,3.673,1.038,5.581,0.982L152.989,269.142z M93.125,265.191h-2.696
			c-3.909,0-5.539-1.547-5.539-5.121c-0.323-2.403,1.362-4.612,3.765-4.936c0.193-0.026,0.388-0.039,0.583-0.039
			c2.675,0,3.888,1.63,3.888,5.079V265.191z M110.871,264.878c-0.669,0-5.644-4.703-5.644-7.483c0-1.526,2.968-2.341,5.79-2.341
			c2.822,0,5.539,0.815,5.539,2.341C116.557,260.112,111.791,264.878,110.871,264.878"/>
		<rect x="164.277" y="242.387" style="fill:#60666C;" width="4.619" height="26.755"/>
		<path style="fill:#60666C;" d="M260.155,241.049h-2.571c-1.066,0-1.317-0.251-1.317-1.066s0.293-1.129,1.421-1.129
			c0.762-0.039,1.51,0.216,2.09,0.711v-2.32l-0.355-0.146c-0.531-0.241-1.109-0.363-1.693-0.355c-2.362,0-3.7,1.129-3.7,3.219
			c-0.003,0.352,0.068,0.701,0.209,1.024h-0.878v2.09h6.877L260.155,241.049z"/>
		<path style="fill:#60666C;" d="M253.257,285.32c-5.033-0.023-9.132,4.038-9.155,9.071c-0.023,5.033,4.038,9.132,9.071,9.155
			c5.033,0.023,9.132-4.038,9.155-9.071c0-0.014,0-0.028,0-0.042C262.317,289.421,258.269,285.355,253.257,285.32 M253.257,299.408
			c-2.743-0.011-4.963-2.232-4.975-4.975c0.012-2.736,2.239-4.944,4.975-4.933c2.736,0.012,4.944,2.239,4.933,4.975
			C258.179,297.195,255.977,299.397,253.257,299.408"/>
		<path style="fill:#60666C;" d="M219.855,285.153c-1.945-0.005-3.874,0.356-5.685,1.066c-1.352-0.772-2.897-1.142-4.452-1.066
			c-2.46-0.023-4.905,0.373-7.232,1.171l-0.46,0.146v16.722h4.578v-13.691c0.829-0.276,1.698-0.41,2.571-0.397
			c2.237,0,2.905,0.711,2.905,3.073v11.057h4.619v-11.371c0.024-0.772-0.047-1.544-0.209-2.299c0.789-0.295,1.624-0.45,2.466-0.46
			c2.09,0,3.114,0.961,3.114,3.073v11.057h4.578V291.8c0.197-1.69-0.301-3.387-1.38-4.703c-1.449-1.37-3.403-2.074-5.393-1.944"/>
		<path style="fill:#60666C;" d="M238.145,299.617c-2.5,0.163-4.659-1.731-4.822-4.23c-0.02-0.311-0.009-0.624,0.035-0.932
			c0-3.386,1.756-5.309,4.828-5.309c0.565-0.01,1.128,0.06,1.672,0.209c0.64,0.205,1.24,0.516,1.777,0.92l1.923-3.303
			c-0.798-0.635-1.715-1.104-2.696-1.38c-0.958-0.237-1.939-0.37-2.926-0.397c-4.868-0.197-8.973,3.589-9.171,8.456
			c-0.013,0.331-0.008,0.662,0.016,0.992c-0.334,4.605,3.129,8.61,7.735,8.943c0.389,0.028,0.78,0.029,1.17,0.003
			c2.199,0.048,4.342-0.694,6.041-2.09l-2.257-2.926C240.504,299.273,239.337,299.64,238.145,299.617"/>
		<path style="fill:#60666C;" d="M178.678,285.32c-6.501,0-9.531,2.864-9.531,8.967v8.967h4.661v-9.03
			c-0.312-2.416,1.393-4.627,3.809-4.939c0.213-0.028,0.428-0.039,0.643-0.036c0.882,0.009,1.76,0.128,2.613,0.355l1.087-4.034
			C180.873,285.415,179.776,285.331,178.678,285.32"/>
		<path style="fill:#60666C;" d="M199.35,293.681v9.469h-6.271c-4.306,0-6.271-0.293-8.361-1.798
			c-2.134-1.714-3.271-4.38-3.031-7.107c-0.071-4.871,3.82-8.877,8.691-8.948c0.259-0.004,0.519,0.004,0.777,0.023
			c5.33,0,8.194,2.968,8.194,8.507 M194.794,294.329c0-3.428-1.338-5.121-3.992-5.121c-2.47-0.007-4.479,1.99-4.485,4.461
			c-0.001,0.186,0.011,0.371,0.033,0.556c0,3.637,1.735,5.226,5.623,5.226h2.822V294.329z"/>
		<path style="fill:#60666C;" d="M166.618,293.681v9.469h-6.271c-4.306,0-6.271-0.293-8.361-1.798
			c-2.143-1.707-3.282-4.379-3.031-7.107c-0.076-4.871,3.812-8.881,8.683-8.956c0.297-0.005,0.594,0.006,0.89,0.031
			c5.33,0,8.152,2.968,8.152,8.507 M161.956,294.329c0-3.491-1.233-5.121-3.951-5.121c-2.47-0.007-4.479,1.99-4.485,4.461
			c-0.001,0.186,0.011,0.371,0.033,0.556c0,3.637,1.735,5.226,5.644,5.226h2.759V294.329z"/>
		<path style="fill:#60666C;" d="M68.921,292.385c-2.78-0.836-3.909-1.296-3.888-2.09c0.021-0.794,1.4-1.463,3.135-1.463
			c1.58-0.028,3.153,0.198,4.661,0.669l1.066-3.992c-1.833-0.409-3.703-0.633-5.581-0.669c-4.933,0-7.629,2.237-7.629,5.581
			c0,1.651,0.46,3.951,5.644,5.393c3.031,0.878,4.18,1.003,4.18,1.986s-1.923,1.923-4.18,1.923
			c-2.111-0.099-4.173-0.663-6.041-1.651v4.348c1.867,0.758,3.859,1.162,5.874,1.191c5.393,0,8.57-2.278,8.57-5.811
			c0-2.655-1.609-4.18-5.894-5.414"/>
		<path style="fill:#60666C;" d="M107.924,296.586c0,2.09-0.857,3.01-3.219,3.01h-0.251c-2.362,0-3.24-0.815-3.24-3.01v-11.078
			h-4.557v11.371c0,5.288,2.968,6.71,7.525,6.71h0.773c4.87,0,7.692-1.38,7.692-6.71v-11.371h-4.724V296.586z"/>
		<path style="fill:#60666C;" d="M137.292,279.05c-1.362-0.023-2.485,1.062-2.508,2.424s1.062,2.485,2.424,2.508
			c1.362,0.023,2.485-1.062,2.508-2.424c0-0.014,0-0.028,0-0.041C139.695,280.179,138.628,279.094,137.292,279.05"/>
		<rect x="135.034" y="286.01" style="fill:#60666C;" width="4.515" height="17.223"/>
		<path style="fill:#60666C;" d="M94.087,293.681v9.469h-6.271c-4.306,0-6.271-0.293-8.361-1.798
			c-2.134-1.714-3.271-4.38-3.031-7.107c-0.071-4.871,3.82-8.877,8.691-8.948c0.259-0.004,0.519,0.004,0.777,0.023
			c5.33,0,8.194,2.968,8.194,8.507 M89.551,294.266c0-3.428-1.338-5.121-3.992-5.121c-2.47,0.039-4.441,2.074-4.401,4.544
			c0.003,0.158,0.013,0.316,0.033,0.473c0,3.637,1.735,5.226,5.623,5.226h2.738V294.266z"/>
		<path style="fill:#60666C;" d="M132.129,278.694v24.539h-5.706c-4.306,0-6.271-0.314-8.361-1.798
			c-2.134-1.714-3.271-4.38-3.031-7.107c-0.272-4.702,3.32-8.734,8.022-9.006c0.308-0.018,0.616-0.019,0.924-0.003h0.46
			c1.165,0.007,2.304,0.348,3.282,0.982v-7.608H132.129z M127.719,294.329c0-3.7-1.024-5.184-3.595-5.184
			c-2.47-0.007-4.479,1.99-4.485,4.461c-0.001,0.186,0.011,0.371,0.033,0.556c0,3.637,1.693,5.226,5.581,5.226h2.466
			L127.719,294.329z"/>
		<path style="fill:#FFFFFF;" d="M391.873,248.428c1.045,0.458,1.718,1.493,1.714,2.634c-0.188,0.92-1.191,1.233-2.341,0.69
			c-1.082-0.448-1.768-1.526-1.714-2.696C389.741,248.156,390.745,247.884,391.873,248.428"/>
		<path style="fill:#FFFFFF;" d="M395.197,230.264c0.899,0.481,1.547,1.296,1.463,1.881s-0.878,0.648-1.818,0.188
			c-0.941-0.46-1.484-1.359-1.484-1.923S394.256,229.783,395.197,230.264"/>
		<path style="fill:#FFFFFF;" d="M395.448,228.445c0.773,0.418,1.296,1.087,1.254,1.547s-0.752,0.523-1.526,0.125
			s-1.317-1.108-1.254-1.568C393.984,228.09,394.695,228.069,395.448,228.445"/>
		<path style="fill:#FFFFFF;" d="M395.782,226.648c0.711,0.397,1.212,1.003,1.15,1.421c-0.063,0.418-0.669,0.439-1.4,0
			c-0.732-0.439-1.212-1.003-1.15-1.421C394.444,226.23,395.071,226.23,395.782,226.648"/>
		<path style="fill:#FFFFFF;" d="M396.054,224.913c0.669,0.355,1.129,0.899,1.087,1.275c-0.042,0.376-0.627,0.397-1.296,0
			s-1.15-0.92-1.087-1.296s0.648-0.376,1.296,0"/>
		<path style="fill:#FFFFFF;" d="M396.325,223.282c0.606,0.334,1.024,0.857,0.982,1.191s-0.564,0.334-1.171,0
			s-1.066-0.857-1.003-1.191C395.197,222.948,395.698,222.969,396.325,223.282"/>
		<path style="fill:#FFFFFF;" d="M396.555,221.84c0.564,0.314,0.962,0.773,0.92,1.066c-0.042,0.293-0.523,0.293-1.087,0
			c-0.564-0.293-0.982-0.773-0.92-1.087c0.063-0.314,0.523-0.272,1.087,0"/>
		<path style="fill:#FFFFFF;" d="M396.785,220.523c0.502,0.293,0.878,0.669,0.857,0.982c-0.021,0.314-0.481,0.23-1.003,0
			c-0.523-0.23-0.92-0.669-0.857-0.982C395.845,220.21,396.263,220.293,396.785,220.523"/>
		<path style="fill:#FFFFFF;" d="M396.994,218.997c0.46,0.251,0.773,0.564,0.753,0.836c-0.021,0.272-0.418,0.188-0.878,0
			c-0.46-0.188-0.773-0.585-0.732-0.836S396.555,218.809,396.994,218.997"/>
		<path style="fill:#FFFFFF;" d="M397.224,217.639c0.397,0.251,0.711,0.523,0.669,0.773c-0.042,0.251-0.355,0.167-0.773,0
			c-0.418-0.167-0.711-0.523-0.69-0.773C396.451,217.388,396.806,217.472,397.224,217.639"/>
		<path style="fill:#FFFFFF;" d="M397.412,216.343c0.355,0.209,0.627,0.439,0.606,0.648c-0.021,0.209-0.314,0.125-0.69,0
			s-0.606-0.46-0.585-0.648C396.764,216.155,397.057,216.218,397.412,216.343"/>
		<path style="fill:#FFFFFF;" d="M397.538,215.089c0.314,0.167,0.543,0.376,0.523,0.543c-0.021,0.167-0.272,0.125-0.585,0
			c-0.314-0.125-0.564-0.397-0.543-0.564c0.021-0.167,0.293-0.105,0.606,0"/>
		<path style="fill:#FFFFFF;" d="M390.682,254.782c-0.938-0.358-1.544-1.275-1.505-2.278c0.167-0.794,1.024-1.045,2.09-0.606
			c0.879,0.405,1.436,1.29,1.421,2.257c-0.167,0.815-1.003,1.087-1.986,0.627"/>
		<path style="fill:#FFFFFF;" d="M389.95,258.67c-0.901-0.396-1.454-1.318-1.38-2.299c0.188-0.815,1.024-1.087,1.944-0.648
			c0.878,0.388,1.427,1.277,1.38,2.237C391.727,258.795,390.891,259.109,389.95,258.67"/>
		<path style="fill:#FFFFFF;" d="M389.177,262.704c-0.882-0.399-1.412-1.315-1.317-2.278c0.188-0.836,1.003-1.15,1.902-0.732
			c0.869,0.404,1.401,1.301,1.338,2.257C390.933,262.788,390.097,263.122,389.177,262.704"/>
		<path style="fill:#FFFFFF;" d="M388.278,267.135c-0.897-0.375-1.417-1.32-1.254-2.278c0.139-0.667,0.792-1.094,1.459-0.955
			c0.142,0.03,0.278,0.084,0.401,0.161c0.862,0.404,1.374,1.31,1.275,2.257c-0.122,0.67-0.765,1.114-1.435,0.992
			C388.566,267.283,388.414,267.223,388.278,267.135"/>
		<path style="fill:#FFFFFF;" d="M387.4,271.567c-0.802-0.362-1.252-1.226-1.087-2.09c0.101-0.603,0.672-1.01,1.276-0.909
			c0.132,0.022,0.26,0.068,0.375,0.136c0.758,0.407,1.189,1.236,1.087,2.09c-0.091,0.605-0.655,1.022-1.26,0.931
			c-0.138-0.021-0.271-0.067-0.392-0.137"/>
		<path style="fill:#FFFFFF;" d="M386.292,276.959c-0.783-0.377-1.207-1.241-1.024-2.09c0.098-0.616,0.677-1.035,1.293-0.936
			c0.11,0.018,0.217,0.051,0.317,0.1c0.775,0.386,1.201,1.238,1.045,2.09c-0.082,0.618-0.65,1.052-1.268,0.97
			c-0.126-0.017-0.249-0.055-0.362-0.113"/>
		<path style="fill:#FFFFFF;" d="M384.996,282.749c-0.685-0.357-1.051-1.124-0.899-1.881c0.066-0.573,0.584-0.985,1.157-0.92
			c0.106,0.012,0.209,0.04,0.306,0.083c0.684,0.337,1.053,1.093,0.899,1.839c-0.06,0.586-0.584,1.012-1.17,0.951
			C385.189,282.812,385.09,282.788,384.996,282.749"/>
		<path style="fill:#FFFFFF;" d="M383.868,288.539c-0.595-0.316-0.897-0.998-0.732-1.651c0.062-0.527,0.54-0.905,1.067-0.843
			c0.071,0.008,0.141,0.025,0.208,0.048c0.58,0.31,0.886,0.966,0.752,1.609C384.996,288.393,384.453,288.769,383.868,288.539"/>
		<path style="fill:#FFFFFF;" d="M395.824,250.623c0.827,0.373,1.369,1.184,1.4,2.09c-0.125,0.773-0.899,1.003-1.798,0.564
			c-0.83-0.369-1.374-1.182-1.4-2.09c0.146-0.732,0.899-0.962,1.798-0.523"/>
		<path style="fill:#FFFFFF;" d="M399.733,252.253c1.048,0.498,1.733,1.537,1.777,2.696c-0.105,0.962-1.024,1.275-2.09,0.711
			c-1.102-0.474-1.834-1.539-1.881-2.738c0.146-0.941,1.066-1.212,2.09-0.669"/>
		<path style="fill:#FFFFFF;" d="M426.801,250.832c-0.439-0.293-0.752-0.188-0.69,0.209c0.128,0.506,0.441,0.946,0.878,1.233
			c0.46,0.272,0.773,0.188,0.711-0.23C427.561,251.542,427.241,251.11,426.801,250.832"/>
		<path style="fill:#FFFFFF;" d="M423.707,248.658c-0.585-0.355-1.003-0.251-0.962,0.272c0.186,0.648,0.602,1.206,1.171,1.568
			c0.606,0.355,1.003,0.251,0.962-0.272C424.698,249.575,424.28,249.015,423.707,248.658"/>
		<path style="fill:#FFFFFF;" d="M414.887,278.109c-0.753-0.481-1.338-0.146-1.359,0.752c0.04,1.007,0.541,1.939,1.359,2.529
			c0.773,0.46,1.338,0.125,1.359-0.815C416.189,279.59,415.689,278.683,414.887,278.109"/>
		<path style="fill:#FFFFFF;" d="M411.145,270.689c-0.899-0.502-1.589-0.167-1.63,0.794c0.044,1.092,0.623,2.092,1.547,2.675
			c0.899,0.523,1.568,0.167,1.609-0.836C412.608,272.252,412.042,271.276,411.145,270.689"/>
		<path style="fill:#FFFFFF;" d="M407.174,264.209c-0.857-0.481-1.568-0.188-1.63,0.69c0.036,1.023,0.597,1.955,1.484,2.466
			c0.899,0.481,1.589,0.167,1.63-0.732C408.615,265.623,408.054,264.706,407.174,264.209"/>
		<path style="fill:#FFFFFF;" d="M404.749,237.768c-0.794-0.418-1.442-0.334-1.484,0.23c0.136,0.773,0.644,1.43,1.359,1.756
			c0.815,0.418,1.442,0.314,1.484-0.251C405.956,238.741,405.452,238.098,404.749,237.768"/>
		<path style="fill:#FFFFFF;" d="M420.886,249.494c-0.606-0.355-1.045-0.251-1.003,0.272c0.146,0.689,0.58,1.282,1.191,1.63
			c0.606,0.376,1.045,0.251,1.003-0.293C421.914,250.428,421.484,249.847,420.886,249.494"/>
		<path style="fill:#FFFFFF;" d="M417.708,247.571c-0.648-0.376-1.129-0.251-1.108,0.293c0.156,0.702,0.605,1.303,1.233,1.651
			c0.669,0.376,1.15,0.251,1.108-0.293C418.786,248.52,418.337,247.919,417.708,247.571"/>
		<path style="fill:#FFFFFF;" d="M411.354,246.484c-0.773-0.418-1.359-0.272-1.38,0.334c0.148,0.81,0.655,1.51,1.38,1.902
			c0.794,0.418,1.38,0.251,1.38-0.376C412.586,247.544,412.077,246.858,411.354,246.484"/>
		<path style="fill:#FFFFFF;" d="M414.552,245.606c-0.732-0.397-1.275-0.272-1.254,0.314c0.152,0.776,0.653,1.439,1.359,1.798
			c0.732,0.418,1.275,0.272,1.254-0.314C415.747,246.632,415.25,245.974,414.552,245.606"/>
		<path style="fill:#FFFFFF;" d="M411.208,243.704c-0.836-0.46-1.463-0.334-1.484,0.314c0.175,0.85,0.73,1.574,1.505,1.965
			c0.836,0.46,1.463,0.314,1.463-0.334C412.515,244.809,411.97,244.095,411.208,243.704"/>
		<path style="fill:#FFFFFF;" d="M407.989,244.519c-0.836-0.46-1.526-0.314-1.568,0.355c0.133,0.9,0.694,1.679,1.505,2.09
			c0.878,0.46,1.547,0.293,1.568-0.397c-0.119-0.905-0.684-1.691-1.505-2.09"/>
		<path style="fill:#FFFFFF;" d="M403.411,258.147c-0.899-0.46-1.651-0.209-1.735,0.627c0.031,0.998,0.599,1.901,1.484,2.362
			c0.92,0.481,1.672,0.188,1.735-0.669C404.841,259.487,404.278,258.607,403.411,258.147"/>
		<path style="fill:#FFFFFF;" d="M403.662,254.489c-0.962-0.502-1.756-0.251-1.86,0.606c0.055,1.063,0.678,2.013,1.63,2.487
			c1.003,0.523,1.798,0.23,1.86-0.648C405.223,255.888,404.602,254.956,403.662,254.489"/>
		<path style="fill:#FFFFFF;" d="M403.913,251.124c-1.045-0.523-1.902-0.293-2.09,0.606c0.088,1.129,0.762,2.13,1.777,2.634
			c1.066,0.543,1.923,0.272,1.986-0.648c-0.097-1.11-0.762-2.09-1.756-2.592"/>
		<path style="fill:#FFFFFF;" d="M404.122,247.989c-1.003-0.502-1.839-0.314-1.923,0.523c0.096,1.072,0.746,2.016,1.714,2.487
			c1.045,0.543,1.881,0.293,1.944-0.564C405.724,249.38,405.073,248.463,404.122,247.989"/>
		<path style="fill:#FFFFFF;" d="M404.268,245.272c-0.878-0.439-1.609-0.293-1.672,0.397c0.104,0.911,0.674,1.703,1.505,2.09
			c0.92,0.481,1.63,0.293,1.693-0.418c-0.123-0.91-0.697-1.696-1.526-2.09"/>
		<path style="fill:#FFFFFF;" d="M404.477,242.512c-0.962-0.502-1.756-0.355-1.818,0.376c0.132,0.984,0.754,1.834,1.651,2.257
			c0.982,0.502,1.756,0.334,1.818-0.418C405.976,243.763,405.359,242.934,404.477,242.512"/>
		<path style="fill:#FFFFFF;" d="M404.624,240.004c-0.941-0.502-1.693-0.376-1.756,0.314c0.161,0.919,0.763,1.7,1.609,2.09
			c0.962,0.481,1.714,0.334,1.756-0.355c-0.161-0.919-0.763-1.7-1.609-2.09"/>
		<path style="fill:#FFFFFF;" d="M398.541,232.312c-0.669-0.355-1.212-0.293-1.296,0.125s0.418,1.024,1.108,1.38
			c0.69,0.355,1.212,0.293,1.275-0.146C399.691,233.232,399.189,232.668,398.541,232.312"/>
		<path style="fill:#FFFFFF;" d="M398.666,230.347c-0.606-0.314-1.108-0.293-1.171,0c-0.063,0.293,0.397,0.92,1.003,1.254
			c0.606,0.334,1.108,0.251,1.171-0.105c0.063-0.355-0.397-0.92-1.003-1.233"/>
		<path style="fill:#FFFFFF;" d="M398.771,228.487c-0.523-0.272-0.962-0.251-1.003,0c-0.042,0.251,0.334,0.794,0.857,1.066
			s0.962,0.251,1.003,0s-0.334-0.752-0.857-1.045"/>
		<path style="fill:#FFFFFF;" d="M398.834,226.794c-0.46-0.251-0.836-0.272-0.899,0c-0.063,0.272,0.314,0.669,0.794,0.941
			c0.481,0.272,0.857,0.272,0.899,0S399.314,227.066,398.834,226.794"/>
		<path style="fill:#FFFFFF;" d="M398.938,225.017c-0.439-0.23-0.794-0.251-0.836,0s0.293,0.627,0.732,0.857
			c0.439,0.23,0.815,0.272,0.836,0C399.691,225.603,399.377,225.268,398.938,225.017"/>
		<path style="fill:#FFFFFF;" d="M399.022,223.345c-0.397-0.209-0.711-0.251-0.752,0c-0.042,0.251,0.272,0.543,0.669,0.752
			c0.397,0.209,0.711,0.251,0.732,0C399.691,223.847,399.398,223.554,399.022,223.345"/>
		<path style="fill:#FFFFFF;" d="M399.085,221.861c-0.355-0.188-0.648-0.251-0.69,0s0.251,0.481,0.627,0.69
			c0.376,0.209,0.648,0.23,0.669,0S399.44,222.07,399.085,221.861"/>
		<path style="fill:#FFFFFF;" d="M399.147,220.335c-0.314-0.167-0.564-0.23-0.585,0c-0.021,0.23,0.209,0.439,0.543,0.606
			s0.564,0.209,0.585,0c0.021-0.209-0.23-0.418-0.543-0.585"/>
		<path style="fill:#FFFFFF;" d="M394.988,256.454c0.69,0.334,1.296,0.125,1.38-0.481c0.01-0.725-0.408-1.388-1.066-1.693
			c-0.69-0.334-1.296-0.146-1.4,0.46C393.887,255.478,394.314,256.153,394.988,256.454"/>
		<path style="fill:#FFFFFF;" d="M394.382,260.342c0.669,0.314,1.254,0,1.359-0.523c0.006-0.702-0.393-1.345-1.024-1.651
			c-0.669-0.314-1.233,0-1.359,0.502C393.343,259.379,393.743,260.032,394.382,260.342"/>
		<path style="fill:#FFFFFF;" d="M393.462,264.418c0.669,0.314,1.233,0,1.338-0.564c0.04-0.71-0.358-1.373-1.003-1.672
			c-0.648-0.314-1.212,0-1.338,0.543C392.427,263.438,392.821,264.103,393.462,264.418"/>
		<path style="fill:#FFFFFF;" d="M392.605,268.598c0.39,0.247,0.907,0.132,1.154-0.258c0.063-0.099,0.104-0.211,0.121-0.327
			c0.046-0.673-0.317-1.308-0.92-1.609c-0.389-0.249-0.906-0.135-1.155,0.253c-0.061,0.095-0.101,0.2-0.12,0.311
			C391.642,267.646,392.002,268.285,392.605,268.598"/>
		<path style="fill:#FFFFFF;" d="M391.581,273.009c0.358,0.232,0.837,0.13,1.07-0.228c0.069-0.107,0.111-0.23,0.122-0.357
			c0.07-0.639-0.263-1.255-0.836-1.547c-0.378-0.223-0.865-0.097-1.088,0.281c-0.055,0.093-0.09,0.197-0.104,0.304
			C390.668,272.103,391.003,272.722,391.581,273.009"/>
		<path style="fill:#FFFFFF;" d="M390.389,278.172c0.359,0.209,0.82,0.086,1.028-0.273c0.059-0.102,0.093-0.216,0.1-0.333
			c0.072-0.607-0.235-1.196-0.773-1.484c-0.359-0.209-0.82-0.086-1.028,0.273c-0.059,0.102-0.093,0.216-0.1,0.333
			C389.524,277.298,389.837,277.897,390.389,278.172"/>
		<path style="fill:#FFFFFF;" d="M407.989,241.948c-0.794-0.439-1.4-0.314-1.442,0.272c0.133,0.812,0.657,1.508,1.4,1.86
			c0.815,0.418,1.421,0.293,1.442-0.314C409.25,242.967,408.726,242.287,407.989,241.948"/>
		<path style="fill:#FFFFFF;" d="M407.717,247.362c-0.711-0.355-1.275-0.23-1.317,0.355c0.11,0.748,0.578,1.396,1.254,1.735
			c0.732,0.397,1.296,0.23,1.317-0.355C408.858,248.35,408.391,247.704,407.717,247.362"/>
		<path style="fill:#FFFFFF;" d="M407.654,250.184c-0.815-0.439-1.463-0.251-1.505,0.418c0.087,0.893,0.622,1.681,1.421,2.09
			c0.836,0.439,1.463,0.251,1.505-0.46c-0.094-0.891-0.628-1.675-1.421-2.09"/>
		<path style="fill:#FFFFFF;" d="M407.257,260.238c-0.794-0.418-1.442-0.188-1.484,0.564c0.066,0.883,0.578,1.671,1.359,2.09
			c0.815,0.439,1.442,0.167,1.484-0.606c-0.077-0.879-0.586-1.663-1.359-2.09"/>
		<path style="fill:#FFFFFF;" d="M420.635,246.735c-0.669-0.397-1.15-0.293-1.108,0.272c0.191,0.719,0.656,1.334,1.296,1.714
			c0.69,0.376,1.15,0.272,1.108-0.293C421.735,247.717,421.27,247.11,420.635,246.735"/>
		<path style="fill:#FFFFFF;" d="M410.852,275.475c-0.732-0.418-1.317,0-1.359,0.732c0.027,0.933,0.502,1.797,1.275,2.32
			c0.752,0.418,1.338,0,1.359-0.773C412.09,276.834,411.617,275.988,410.852,275.475"/>
		<path style="fill:#FFFFFF;" d="M414.949,283.23c-0.711-0.46-1.254-0.125-1.275,0.753c0.032,0.956,0.492,1.846,1.254,2.425
			c0.711,0.439,1.233,0.104,1.254-0.794C416.146,284.675,415.694,283.801,414.949,283.23"/>
		<path style="fill:#FFFFFF;" d="M406.86,268.41c-0.815-0.439-1.484-0.146-1.547,0.711c0.025,0.966,0.547,1.851,1.38,2.341
			c0.836,0.439,1.484,0.125,1.547-0.732C408.204,269.773,407.684,268.899,406.86,268.41"/>
		<path style="fill:#FFFFFF;" d="M403.077,262.14c-0.794-0.418-1.463-0.146-1.547,0.627c0.042,0.88,0.541,1.673,1.317,2.09
			c0.815,0.418,1.484,0.125,1.547-0.669c-0.037-0.881-0.538-1.676-1.317-2.09"/>
		<path style="fill:#FFFFFF;" d="M399.419,256.057c-0.878-0.439-1.63-0.188-1.735,0.606c0,0.952,0.544,1.82,1.4,2.237
			c0.899,0.439,1.651,0.167,1.735-0.627C400.792,257.334,400.255,256.484,399.419,256.057"/>
		<path style="fill:#FFFFFF;" d="M407.404,256.831c-0.732-0.397-1.338-0.188-1.38,0.502c0.06,0.83,0.541,1.572,1.275,1.965
			c0.752,0.397,1.338,0.167,1.38-0.523C408.598,257.957,408.121,257.23,407.404,256.831"/>
		<path style="fill:#FFFFFF;" d="M404.854,235.615c-0.69-0.355-1.254-0.293-1.296,0.167c0.134,0.67,0.587,1.231,1.212,1.505
			c0.711,0.376,1.254,0.314,1.275-0.167C405.915,236.455,405.471,235.894,404.854,235.615"/>
		<path style="fill:#FFFFFF;" d="M417.541,245.104c-0.564-0.314-0.962-0.23-0.941,0.209c0.138,0.581,0.519,1.076,1.045,1.359
			c0.564,0.314,0.962,0.209,0.92-0.23C418.427,245.872,418.055,245.387,417.541,245.104"/>
		<path style="fill:#FFFFFF;" d="M411.375,252.504c-0.627-0.355-1.108-0.209-1.129,0.334c0.074,0.694,0.489,1.306,1.108,1.63
			c0.648,0.334,1.108,0.188,1.129-0.376C412.396,253.413,411.982,252.82,411.375,252.504"/>
		<path style="fill:#FFFFFF;" d="M411.062,266.508c-0.773-0.439-1.38-0.167-1.4,0.627c0.048,0.927,0.548,1.771,1.338,2.257
			c0.794,0.439,1.4,0.167,1.421-0.669C412.351,267.809,411.845,266.984,411.062,266.508"/>
		<path style="fill:#FFFFFF;" d="M407.529,253.57c-0.711-0.397-1.296-0.209-1.338,0.418c0.071,0.794,0.544,1.497,1.254,1.86
			c0.732,0.397,1.296,0.209,1.338-0.439C408.702,254.624,408.23,253.932,407.529,253.57"/>
		<path style="fill:#FFFFFF;" d="M414.97,257.75c-0.711-0.397-1.233-0.209-1.233,0.439c0.112,0.806,0.58,1.52,1.275,1.944
			c0.711,0.418,1.233,0.209,1.233-0.46C416.124,258.876,415.658,258.172,414.97,257.75"/>
		<path style="fill:#FFFFFF;" d="M417.98,291.591c-0.564-0.397-0.982,0-0.982,0.69c0.022,0.842,0.393,1.637,1.024,2.195
			c0.564,0.418,0.982,0,0.982-0.711c-0.054-0.804-0.422-1.555-1.024-2.09"/>
		<path style="fill:#FFFFFF;" d="M414.678,248.449c-0.648-0.355-1.15-0.23-1.129,0.314c0.13,0.696,0.568,1.295,1.191,1.63
			c0.648,0.376,1.129,0.251,1.129-0.314C415.723,249.391,415.289,248.797,414.678,248.449"/>
		<path style="fill:#FFFFFF;" d="M401.593,233.963c-0.648-0.334-1.15-0.293-1.212,0.125c-0.063,0.418,0.439,1.003,1.066,1.359
			c0.627,0.355,1.171,0.272,1.212-0.146C402.548,234.706,402.149,234.204,401.593,233.963"/>
		<path style="fill:#FFFFFF;" d="M407.989,235.301c-0.606-0.334-1.066-0.272-1.087,0.125c0.132,0.58,0.526,1.067,1.066,1.317
			c0.627,0.314,1.087,0.272,1.087-0.146C408.92,236.023,408.526,235.545,407.989,235.301"/>
		<path style="fill:#FFFFFF;" d="M414.469,243.39c-0.502-0.272-0.878-0.209-0.878,0.188c0.127,0.514,0.47,0.948,0.941,1.191
			c0.502,0.272,0.878,0.209,0.857-0.188C415.282,244.064,414.942,243.624,414.469,243.39"/>
		<path style="fill:#FFFFFF;" d="M411.208,255.702c-0.627-0.334-1.129-0.167-1.15,0.397c0.084,0.723,0.512,1.362,1.15,1.714
			c0.648,0.376,1.129,0.188,1.15-0.418C412.26,256.682,411.835,256.055,411.208,255.702"/>
		<path style="fill:#FFFFFF;" d="M414.761,254.531c-0.543-0.314-0.962-0.188-0.962,0.314c0.095,0.62,0.463,1.165,1.003,1.484
			c0.564,0.314,0.982,0.167,0.962-0.334C415.664,255.382,415.296,254.846,414.761,254.531"/>
		<path style="fill:#FFFFFF;" d="M418.44,259.903c-0.627-0.355-1.066-0.188-1.066,0.418c0.112,0.74,0.539,1.396,1.171,1.798
			c0.606,0.376,1.066,0.188,1.045-0.439C419.469,260.954,419.053,260.31,418.44,259.903"/>
		<path style="fill:#FFFFFF;" d="M423.937,251.542c-0.46-0.272-0.794-0.188-0.753,0.23c0.129,0.529,0.459,0.986,0.92,1.275
			c0.481,0.293,0.794,0.188,0.753-0.23C424.728,252.289,424.398,251.831,423.937,251.542"/>
		<path style="fill:#FFFFFF;" d="M407.989,233.399c-0.543-0.293-0.941-0.251-0.962,0c-0.021,0.251,0.418,0.836,0.941,1.15
			c0.523,0.314,0.962,0.23,0.962,0c-0.131-0.497-0.475-0.91-0.941-1.129"/>
		<path style="fill:#FFFFFF;" d="M407.989,237.454c-0.564-0.293-0.982-0.23-1.003,0.146c0.108,0.546,0.474,1.006,0.982,1.233
			c0.564,0.314,1.003,0.251,1.003-0.146C408.86,238.143,408.495,237.684,407.989,237.454"/>
		<path style="fill:#FFFFFF;" d="M418.586,286.47c-0.648-0.439-1.129-0.125-1.129,0.732c0.048,0.915,0.471,1.77,1.171,2.362
			c0.648,0.46,1.129,0.146,1.129-0.732C419.702,287.919,419.28,287.067,418.586,286.47"/>
		<path style="fill:#FFFFFF;" d="M404.937,233.713c-0.543-0.293-0.982-0.251-1.024,0c0.121,0.518,0.477,0.951,0.962,1.171
			c0.564,0.293,1.003,0.251,1.003-0.105s-0.397-0.878-0.941-1.171"/>
		<path style="fill:#FFFFFF;" d="M411.208,249.515c-0.543-0.293-0.961-0.188-0.982,0.272c0.093,0.588,0.457,1.099,0.982,1.38
			c0.543,0.293,0.982,0.188,0.982-0.293C412.088,250.294,411.726,249.793,411.208,249.515"/>
		<path style="fill:#FFFFFF;" d="M411.166,241.676c-0.439-0.251-0.794-0.188-0.794,0.146c0.095,0.461,0.395,0.853,0.815,1.066
			c0.46,0.251,0.815,0.188,0.815-0.167C411.894,242.266,411.587,241.882,411.166,241.676"/>
		<path style="fill:#FFFFFF;" d="M411.124,262.829c-0.543-0.314-0.962-0.125-0.982,0.418c0.067,0.635,0.421,1.205,0.962,1.547
			c0.543,0.314,0.982,0.125,0.982-0.418C412.038,263.734,411.679,263.156,411.124,262.829"/>
		<path style="fill:#FFFFFF;" d="M414.991,273.531c-0.627-0.376-1.108-0.125-1.129,0.585c0.042,0.831,0.456,1.599,1.129,2.09
			c0.648,0.376,1.129,0.125,1.129-0.606c-0.023-0.836-0.442-1.612-1.129-2.09"/>
		<path style="fill:#FFFFFF;" d="M407.989,239.962c-0.418-0.23-0.732-0.167-0.753,0.125c0.083,0.411,0.354,0.759,0.732,0.941
			c0.418,0.23,0.752,0.167,0.752-0.146C408.641,240.475,408.368,240.132,407.989,239.962"/>
		<path style="fill:#FFFFFF;" d="M414.678,288.247c-0.502-0.314-0.899,0-0.92,0.606c0.017,0.697,0.347,1.35,0.899,1.777
			c0.502,0.334,0.878,0,0.899-0.606C415.546,289.329,415.223,288.676,414.678,288.247"/>
		<path style="fill:#FFFFFF;" d="M417.897,250.539c-0.523-0.293-0.899-0.188-0.878,0.251c0.118,0.578,0.475,1.079,0.982,1.38
			c0.523,0.293,0.899,0.188,0.878-0.272C418.755,251.327,418.399,250.835,417.897,250.539"/>
		<path style="fill:#FFFFFF;" d="M411.145,235.155c-0.481-0.251-0.836-0.23-0.836,0c0.113,0.46,0.428,0.844,0.857,1.045
			c0.481,0.251,0.836,0.209,0.836,0c-0.131-0.446-0.441-0.817-0.857-1.024"/>
		<path style="fill:#FFFFFF;" d="M429.957,252.922c-0.376-0.251-0.627-0.167-0.564,0.188c0.105,0.45,0.383,0.84,0.773,1.087
			c0.376,0.251,0.627,0.188,0.564-0.188C430.611,253.566,430.336,253.18,429.957,252.922"/>
		<path style="fill:#FFFFFF;" d="M421.889,262.202c-0.543-0.334-0.941-0.167-0.92,0.397c0.106,0.671,0.484,1.268,1.045,1.651
			c0.543,0.355,0.941,0.188,0.92-0.376C422.824,263.2,422.447,262.597,421.889,262.202"/>
		<path style="fill:#FFFFFF;" d="M420.196,297.234c-0.46-0.397-0.794-0.125-0.794,0.606c0.016,0.779,0.322,1.524,0.857,2.09
			c0.46,0.397,0.794,0.125,0.773-0.627c-0.002-0.778-0.301-1.525-0.836-2.09"/>
		<path style="fill:#FFFFFF;" d="M410.685,280.596c-0.543-0.334-0.982,0-1.024,0.585c0.013,0.713,0.371,1.376,0.962,1.777
			c0.543,0.314,0.982,0,1.003-0.606C411.629,281.645,411.275,280.985,410.685,280.596"/>
		<path style="fill:#FFFFFF;" d="M418.252,256.831c-0.397-0.23-0.69-0.146-0.669,0.23c0.073,0.457,0.34,0.861,0.732,1.108
			c0.397,0.23,0.69,0.125,0.669-0.251C418.907,257.467,418.641,257.071,418.252,256.831"/>
		<path style="fill:#FFFFFF;" d="M410.957,233.232c-0.397-0.209-0.711-0.23-0.711,0c0.108,0.385,0.385,0.7,0.752,0.857
			c0.397,0.23,0.711,0.23,0.711,0S411.354,233.462,410.957,233.232"/>
		<path style="fill:#FFFFFF;" d="M413.841,234.967c-0.334-0.188-0.564-0.188-0.564,0c0,0.188,0.293,0.523,0.627,0.711
			c0.334,0.188,0.585,0.188,0.564,0c-0.092-0.324-0.321-0.591-0.627-0.732"/>
		<path style="fill:#FFFFFF;" d="M406.651,273.594c-0.502-0.272-0.899,0-0.941,0.481c0.01,0.593,0.316,1.142,0.815,1.463
			c0.502,0.272,0.899,0,0.941-0.502C407.46,274.447,407.153,273.903,406.651,273.594"/>
		<path style="fill:#FFFFFF;" d="M402.596,266.822c-0.502-0.251-0.899,0-0.962,0.418c0.002,0.563,0.305,1.081,0.794,1.359
			c0.502,0.23,0.899,0,0.941-0.439C403.373,267.606,403.077,267.095,402.596,266.822"/>
		<path style="fill:#FFFFFF;" d="M398.834,260.53c-0.481-0.23-0.899,0-0.962,0.355c-0.001,0.531,0.299,1.016,0.773,1.254
			c0.481,0.251,0.899,0,0.941-0.376C399.593,261.242,399.3,260.763,398.834,260.53"/>
		<path style="fill:#FFFFFF;" d="M413.674,233.065c-0.355-0.188-0.606-0.209-0.606,0c0,0.209,0.314,0.543,0.669,0.732
			c0.355,0.188,0.606,0.209,0.606,0c-0.115-0.33-0.355-0.6-0.669-0.752"/>
		<path style="fill:#FFFFFF;" d="M415.953,233.19c-0.314-0.167-0.543-0.167-0.523,0c0.084,0.288,0.29,0.525,0.564,0.648
			c0.314,0.167,0.543,0.188,0.523,0C416.426,233.554,416.222,233.319,415.953,233.19"/>
		<path style="fill:#FFFFFF;" d="M425.317,264.836c-0.334-0.23-0.585-0.125-0.564,0.272c0.081,0.443,0.328,0.839,0.69,1.108
			c0.334,0.23,0.585,0.125,0.543-0.272C425.923,265.499,425.681,265.099,425.317,264.836"/>
		<path style="fill:#FFFFFF;" d="M422.14,265.714c-0.439-0.272-0.752-0.146-0.732,0.334c0.078,0.561,0.379,1.066,0.836,1.4
			c0.439,0.293,0.752,0.146,0.732-0.355C422.893,266.54,422.592,266.043,422.14,265.714"/>
		<path style="fill:#FFFFFF;" d="M418.586,263.498c-0.418-0.251-0.711-0.125-0.711,0.293c0.065,0.499,0.338,0.947,0.753,1.233
			c0.418,0.251,0.711,0.125,0.711-0.314C419.279,264.215,419.003,263.772,418.586,263.498"/>
		<path style="fill:#FFFFFF;" d="M414.928,261.345c-0.376-0.23-0.648-0.104-0.669,0.272c0.064,0.444,0.315,0.84,0.69,1.087
			c0.376,0.209,0.669,0,0.669-0.293C415.56,261.971,415.306,261.579,414.928,261.345"/>
		<path style="fill:#FFFFFF;" d="M411.208,259.172c-0.397-0.209-0.69,0-0.711,0.272c0.05,0.444,0.305,0.839,0.69,1.066
			c0.397,0.209,0.69,0,0.69-0.272C411.835,259.796,411.587,259.401,411.208,259.172"/>
		<path style="fill:#FFFFFF;" d="M425.505,268.18c-0.334-0.251-0.585-0.125-0.564,0.272c0.068,0.465,0.316,0.886,0.69,1.171
			c0.334,0.251,0.585,0.146,0.564-0.272C426.127,268.886,425.879,268.465,425.505,268.18"/>
		<path style="fill:#FFFFFF;" d="M429.037,270.835c-0.314-0.23-0.523-0.125-0.481,0.251c0.051,0.44,0.268,0.844,0.606,1.129
			c0.314,0.23,0.523,0.125,0.481-0.272C429.579,271.514,429.364,271.121,429.037,270.835"/>
		<path style="fill:#FFFFFF;" d="M411.082,237.245c-0.397-0.23-0.69-0.209-0.69,0c0.099,0.377,0.359,0.69,0.711,0.857
			c0.397,0.23,0.69,0.209,0.69,0C411.703,237.721,411.44,237.404,411.082,237.245"/>
		<path style="fill:#FFFFFF;" d="M387.735,246.588c-0.92-0.418-1.756-0.209-1.944,0.502c-0.061,0.915,0.482,1.762,1.338,2.09
			c0.941,0.439,1.777,0.209,1.965-0.543c0.058-0.92-0.494-1.769-1.359-2.09"/>
		<path style="fill:#FFFFFF;" d="M383.763,244.352c-1.171-0.543-2.257-0.293-2.55,0.606c-0.115,1.147,0.566,2.225,1.651,2.613
			c1.212,0.543,2.299,0.251,2.55-0.669C385.486,245.781,384.815,244.745,383.763,244.352"/>
		<path style="fill:#FFFFFF;" d="M357.113,216.197c0.627,0.23,0.92,0.606,0.711,0.899c-0.448,0.33-1.039,0.394-1.547,0.167
			c-0.627-0.209-0.941-0.606-0.711-0.899C356.019,216.046,356.603,215.983,357.113,216.197"/>
		<path style="fill:#FFFFFF;" d="M361.502,217.576c0.732,0.272,1.129,0.773,0.878,1.15s-1.045,0.418-1.798,0.146
			c-0.752-0.272-1.171-0.773-0.899-1.15C359.956,217.346,360.75,217.304,361.502,217.576"/>
		<path style="fill:#FFFFFF;" d="M359.914,252.357c0.623,0.173,0.987,0.819,0.814,1.441c-0.006,0.021-0.012,0.043-0.02,0.064
			c-0.355,0.61-1.118,0.846-1.756,0.543c-0.615-0.158-0.985-0.785-0.827-1.4c0.009-0.036,0.02-0.071,0.032-0.105
			C358.532,252.315,359.274,252.085,359.914,252.357"/>
		<path style="fill:#FFFFFF;" d="M366.184,249.201c0.9,0.253,1.424,1.188,1.171,2.088c0,0.001,0,0.001,0,0.002
			c-0.466,0.813-1.493,1.109-2.32,0.669c-0.889-0.25-1.407-1.173-1.158-2.062c0.003-0.009,0.005-0.019,0.008-0.028
			c0.479-0.784,1.481-1.067,2.299-0.648"/>
		<path style="fill:#FFFFFF;" d="M372.455,247.383c0.882,0.287,1.424,1.174,1.275,2.09c-0.293,0.815-1.296,1.087-2.341,0.669
			c-0.932-0.3-1.484-1.259-1.275-2.216c0.458-0.815,1.49-1.105,2.305-0.648c0.012,0.007,0.024,0.014,0.036,0.021"/>
		<path style="fill:#FFFFFF;" d="M384.265,227.212c0.857,0.418,1.4,1.129,1.254,1.651s-0.962,0.585-1.839,0.167
			c-0.878-0.418-1.4-1.15-1.233-1.672C382.614,226.836,383.408,226.794,384.265,227.212"/>
		<path style="fill:#FFFFFF;" d="M364.261,221.15c0.794,0.314,1.212,0.857,0.982,1.275s-1.087,0.523-1.902,0.23
			c-0.815-0.293-1.233-0.878-0.982-1.296C362.892,220.909,363.644,220.827,364.261,221.15"/>
		<path style="fill:#FFFFFF;" d="M368.275,222.614c0.794,0.334,1.254,0.941,1.024,1.38c-0.23,0.439-1.066,0.543-1.902,0.209
			c-0.836-0.334-1.275-0.941-1.024-1.38C366.623,222.384,367.46,222.3,368.275,222.614"/>
		<path style="fill:#FFFFFF;" d="M375.089,228.174c0.899,0.418,1.4,1.108,1.191,1.651c-0.209,0.543-1.087,0.648-2.09,0.272
			c-1.003-0.376-1.421-1.129-1.191-1.693C373.228,227.839,374.127,227.797,375.089,228.174"/>
		<path style="fill:#FFFFFF;" d="M372.267,224.244c0.857,0.376,1.359,1.045,1.15,1.547c-0.209,0.502-1.108,0.585-2.09,0.209
			c-0.982-0.376-1.38-1.066-1.15-1.568C370.407,223.93,371.306,223.868,372.267,224.244"/>
		<path style="fill:#FFFFFF;" d="M376.197,225.916c0.899,0.439,1.442,1.171,1.233,1.714c-0.209,0.543-1.108,0.627-2.09,0.209
			c-0.982-0.418-1.484-1.171-1.233-1.714S375.235,225.519,376.197,225.916"/>
		<path style="fill:#FFFFFF;" d="M378.977,229.846c0.962,0.46,1.526,1.254,1.338,1.86c-0.188,0.606-1.15,0.711-2.09,0.272
			c-0.941-0.439-1.547-1.275-1.338-1.881C377.095,229.49,378.057,229.407,378.977,229.846"/>
		<path style="fill:#FFFFFF;" d="M378.308,245.794c0.856,0.328,1.398,1.176,1.338,2.09c-0.251,0.794-1.212,1.045-2.237,0.606
			c-0.856-0.328-1.398-1.176-1.338-2.09c0.272-0.773,1.233-1.003,2.237-0.564"/>
		<path style="fill:#FFFFFF;" d="M379.332,242.512c0.949,0.338,1.55,1.275,1.463,2.278c-0.272,0.815-1.296,1.066-2.383,0.585
			c-1.006-0.292-1.641-1.284-1.484-2.32C377.221,242.262,378.245,242.032,379.332,242.512"/>
		<path style="fill:#FFFFFF;" d="M380.231,239.44c1.129,0.543,1.818,1.568,1.589,2.404s-1.359,1.087-2.55,0.564
			s-1.86-1.63-1.589-2.466C377.952,239.105,379.081,238.917,380.231,239.44"/>
		<path style="fill:#FFFFFF;" d="M381.15,236.576c1.108,0.523,1.777,1.505,1.568,2.278c-0.209,0.773-1.296,0.982-2.446,0.46
			s-1.818-1.547-1.568-2.32S380.043,236.054,381.15,236.576"/>
		<path style="fill:#FFFFFF;" d="M381.945,234.068c0.962,0.46,1.547,1.317,1.38,1.965c-0.167,0.648-1.129,0.815-2.09,0.355
			c-0.962-0.46-1.589-1.338-1.38-2.09c0.209-0.752,1.15-0.752,2.09-0.314"/>
		<path style="fill:#FFFFFF;" d="M382.906,231.539c1.045,0.523,1.693,1.421,1.505,2.09s-1.212,0.815-2.278,0.314
			c-1.066-0.502-1.714-1.421-1.505-2.09s1.233-0.773,2.278-0.293"/>
		<path style="fill:#FFFFFF;" d="M383.617,229.24c1.003,0.502,1.651,1.359,1.463,2.09c-0.188,0.732-1.129,0.732-2.09,0.251
			c-0.962-0.481-1.693-1.38-1.484-2.09c0.209-0.711,1.171-0.69,2.195-0.23"/>
		<path style="fill:#FFFFFF;" d="M391.664,228.717c0.669,0.355,1.129,0.941,1.066,1.359c-0.063,0.418-0.69,0.46-1.38,0.125
			c-0.69-0.334-1.15-0.961-1.045-1.38c0.105-0.418,0.69-0.439,1.359,0"/>
		<path style="fill:#FFFFFF;" d="M392.208,226.794c0.606,0.334,1.045,0.836,0.962,1.212c-0.084,0.376-0.606,0.397-1.233,0
			s-1.045-0.878-0.982-1.233c0.063-0.355,0.648-0.376,1.254,0"/>
		<path style="fill:#FFFFFF;" d="M392.73,225.143c0.543,0.293,0.899,0.732,0.857,1.045c-0.042,0.314-0.543,0.314-1.087,0
			c-0.543-0.314-0.899-0.732-0.836-1.045C391.727,224.829,392.208,224.829,392.73,225.143"/>
		<path style="fill:#FFFFFF;" d="M393.211,223.491c0.481,0.251,0.815,0.627,0.773,0.92s-0.481,0.272-0.962,0
			s-0.836-0.627-0.773-0.941c0.063-0.314,0.481-0.251,0.962,0"/>
		<path style="fill:#FFFFFF;" d="M393.671,221.987c0.439,0.23,0.752,0.564,0.711,0.836s-0.439,0.251-0.899,0
			c-0.46-0.251-0.753-0.564-0.711-0.857c0.042-0.293,0.46-0.209,0.899,0"/>
		<path style="fill:#FFFFFF;" d="M394.089,220.523c0.397,0.23,0.669,0.523,0.627,0.752c-0.042,0.23-0.376,0.188-0.773,0
			c-0.397-0.188-0.69-0.502-0.627-0.752S393.692,220.356,394.089,220.523"/>
		<path style="fill:#FFFFFF;" d="M394.465,219.353c0.355,0.188,0.606,0.46,0.585,0.669c-0.021,0.209-0.355,0.167-0.732,0
			c-0.376-0.167-0.627-0.481-0.585-0.69c0.042-0.209,0.355-0.167,0.732,0"/>
		<path style="fill:#FFFFFF;" d="M394.841,218.12c0.314,0.188,0.543,0.397,0.502,0.585c-0.042,0.188-0.293,0.146-0.627,0
			c-0.334-0.146-0.543-0.397-0.523-0.585C394.214,217.931,394.507,217.994,394.841,218.12"/>
		<path style="fill:#FFFFFF;" d="M386.397,252.232c-0.668-0.265-1.084-0.935-1.024-1.651c0.146-0.585,0.815-0.773,1.526-0.439
			c0.656,0.268,1.068,0.924,1.024,1.63C387.776,252.378,387.128,252.566,386.397,252.232"/>
		<path style="fill:#FFFFFF;" d="M385.624,256.057c-0.648-0.271-1.046-0.931-0.982-1.63c0.167-0.585,0.794-0.794,1.484-0.481
			c0.637,0.27,1.026,0.921,0.962,1.609C386.94,256.162,386.313,256.371,385.624,256.057"/>
		<path style="fill:#FFFFFF;" d="M384.996,260.049c-0.655-0.27-1.042-0.95-0.941-1.651c0.146-0.606,0.773-0.815,1.463-0.523
			c0.641,0.274,1.025,0.938,0.941,1.63C386.313,260.112,385.686,260.363,384.996,260.049"/>
		<path style="fill:#FFFFFF;" d="M384.223,264.418c-0.62-0.268-0.981-0.921-0.878-1.589c0.141-0.5,0.661-0.79,1.161-0.649
			c0.084,0.024,0.165,0.059,0.239,0.105c0.603,0.273,0.953,0.912,0.857,1.568c-0.137,0.501-0.655,0.796-1.156,0.658
			C384.368,264.49,384.293,264.459,384.223,264.418"/>
		<path style="fill:#FFFFFF;" d="M383.345,269.142c-0.583-0.267-0.91-0.895-0.794-1.526c0.115-0.483,0.6-0.781,1.083-0.666
			c0.074,0.018,0.146,0.045,0.213,0.081c0.586,0.266,0.92,0.891,0.815,1.526c-0.11,0.484-0.591,0.788-1.075,0.678
			C383.502,269.216,383.421,269.184,383.345,269.142"/>
		<path style="fill:#FFFFFF;" d="M382.425,274.535c-0.563-0.261-0.868-0.879-0.732-1.484c0.098-0.475,0.563-0.78,1.038-0.682
			c0.075,0.016,0.148,0.041,0.216,0.075c0.548,0.264,0.849,0.866,0.732,1.463c-0.105,0.485-0.583,0.794-1.068,0.689
			C382.547,274.583,382.485,274.562,382.425,274.535"/>
		<path style="fill:#FFFFFF;" d="M379.959,227.672c0.878,0.439,1.4,1.15,1.233,1.693c-0.167,0.543-1.045,0.627-1.944,0.209
			c-0.899-0.418-1.442-1.15-1.254-1.693S379.06,227.275,379.959,227.672"/>
		<path style="fill:#FFFFFF;" d="M377.952,232.417c0.815,0.376,1.275,1.045,1.108,1.568c-0.167,0.523-0.962,0.648-1.777,0.293
			s-1.296-1.066-1.108-1.589S377.158,232.061,377.952,232.417"/>
		<path style="fill:#FFFFFF;" d="M377.054,234.925c0.899,0.418,1.442,1.212,1.233,1.839c-0.209,0.627-1.108,0.773-2.09,0.355
			c-0.982-0.418-1.484-1.233-1.254-1.86c0.23-0.627,1.15-0.732,2.09-0.334"/>
		<path style="fill:#FFFFFF;" d="M373.688,243.913c0.818,0.258,1.324,1.076,1.191,1.923c-0.272,0.69-1.171,0.92-2.09,0.543
			c-0.83-0.268-1.337-1.105-1.191-1.965C371.891,243.725,372.79,243.516,373.688,243.913"/>
		<path style="fill:#FFFFFF;" d="M365.578,218.997c0.857,0.355,1.296,0.941,1.045,1.38c-0.251,0.439-1.15,0.502-2.09,0.146
			s-1.317-0.941-1.045-1.38C363.76,218.705,364.659,218.642,365.578,218.997"/>
		<path style="fill:#FFFFFF;" d="M364.47,253.444c0.851,0.258,1.331,1.157,1.073,2.008c-0.008,0.028-0.018,0.055-0.028,0.083
			c-0.417,0.793-1.392,1.109-2.195,0.711c-0.843-0.243-1.329-1.123-1.086-1.966c0.012-0.042,0.026-0.083,0.041-0.124
			c0.446-0.76,1.395-1.058,2.195-0.69"/>
		<path style="fill:#FFFFFF;" d="M358.158,256.057c0.798,0.233,1.256,1.069,1.023,1.867c-0.012,0.04-0.025,0.08-0.04,0.119
			c-0.451,0.814-1.448,1.15-2.299,0.773c-0.786-0.188-1.27-0.978-1.082-1.764c0.027-0.113,0.068-0.223,0.121-0.327
			c0.456-0.795,1.438-1.119,2.278-0.752"/>
		<path style="fill:#FFFFFF;" d="M371.013,251.312c0.865,0.297,1.369,1.197,1.171,2.09c-0.387,0.787-1.339,1.112-2.126,0.726
			c-0.023-0.011-0.046-0.023-0.069-0.036c-0.874-0.289-1.388-1.191-1.191-2.09c0.431-0.79,1.422-1.081,2.212-0.65
			c0.001,0.001,0.002,0.001,0.003,0.002"/>
		<path style="fill:#FFFFFF;" d="M377.095,249.577c0.865,0.297,1.369,1.197,1.171,2.09c-0.23,0.732-1.108,1.003-2.09,0.606
			c-0.874-0.289-1.388-1.191-1.191-2.09c0.251-0.711,1.129-0.961,2.09-0.564"/>
		<path style="fill:#FFFFFF;" d="M382.697,247.863c0.848,0.335,1.381,1.181,1.317,2.09c-0.209,0.752-1.108,1.003-2.09,0.585
			c-0.848-0.335-1.381-1.181-1.317-2.09c0.23-0.732,1.108-0.962,2.09-0.543"/>
		<path style="fill:#FFFFFF;" d="M374.838,240.736c0.836,0.397,1.317,1.15,1.108,1.777c-0.209,0.627-1.066,0.794-1.923,0.439
			c-0.857-0.355-1.338-1.171-1.129-1.777C373.103,240.569,373.981,240.38,374.838,240.736"/>
		<path style="fill:#FFFFFF;" d="M384.996,225.247c0.752,0.376,1.212,0.982,1.108,1.421c-0.105,0.439-0.836,0.481-1.589,0
			c-0.753-0.481-1.233-1.003-1.108-1.442s0.836-0.46,1.589,0"/>
		<path style="fill:#FFFFFF;" d="M369.529,220.816c0.669,0.293,1.045,0.794,0.857,1.15c-0.188,0.355-0.878,0.397-1.568,0
			c-0.69-0.397-1.045-0.794-0.857-1.15c0.188-0.355,0.899-0.397,1.568-0.105"/>
		<path style="fill:#FFFFFF;" d="M372.894,233.336c0.711,0.334,1.129,0.941,0.941,1.421c-0.188,0.481-0.92,0.585-1.672,0.272
			c-0.753-0.314-1.15-0.941-0.962-1.421C371.389,233.127,372.163,233.044,372.894,233.336"/>
		<path style="fill:#FFFFFF;" d="M367.648,245.46c0.78,0.092,1.337,0.799,1.245,1.579s-0.799,1.337-1.578,1.244
			c-0.26-0.031-0.506-0.132-0.711-0.294c-0.962-0.397-1.442-1.233-1.15-1.965c0.459-0.682,1.35-0.923,2.09-0.564"/>
		<path style="fill:#FFFFFF;" d="M375.904,237.935c0.794,0.376,1.275,1.087,1.087,1.672c-0.188,0.585-1.024,0.732-1.86,0.376
			c-0.836-0.355-1.296-1.108-1.087-1.693C374.253,237.705,375.068,237.58,375.904,237.935"/>
		<path style="fill:#FFFFFF;" d="M367.355,234.214c0.857,0.355,1.317,1.066,1.066,1.63s-1.15,0.711-2.09,0.376
			c-0.941-0.334-1.338-1.066-1.066-1.63C365.536,234.026,366.414,233.88,367.355,234.214"/>
		<path style="fill:#FFFFFF;" d="M352.661,258.691c0.527,0.131,0.847,0.664,0.716,1.191c-0.016,0.065-0.039,0.129-0.068,0.189
			c-0.346,0.569-1.042,0.821-1.672,0.606c-0.544-0.154-0.861-0.72-0.707-1.264c0.015-0.054,0.035-0.106,0.059-0.157
			C351.342,258.695,352.04,258.46,352.661,258.691"/>
		<path style="fill:#FFFFFF;" d="M371.055,226.543c0.773,0.355,1.212,0.941,1.003,1.421c-0.209,0.481-0.982,0.543-1.798,0.209
			s-1.212-0.941-1.003-1.4C369.466,226.313,370.281,226.23,371.055,226.543"/>
		<path style="fill:#FFFFFF;" d="M388.341,227.045c0.669,0.355,1.108,0.92,1.003,1.296s-0.69,0.439-1.38,0.125
			c-0.69-0.314-1.108-0.92-1.003-1.317S387.693,226.731,388.341,227.045"/>
		<path style="fill:#FFFFFF;" d="M378.726,220.523c0.502,0.209,0.836,0.564,0.773,0.836c-0.063,0.272-0.523,0.334-1.024,0.146
			c-0.502-0.188-0.857-0.564-0.773-0.836S378.224,220.335,378.726,220.523"/>
		<path style="fill:#FFFFFF;" d="M373.228,222.363c0.585,0.272,0.92,0.711,0.773,1.045c-0.146,0.334-0.732,0.355-1.338,0.105
			s-0.941-0.711-0.794-1.045C372.016,222.133,372.622,222.112,373.228,222.363"/>
		<path style="fill:#FFFFFF;" d="M371.619,236.2c0.752,0.334,1.171,0.962,0.962,1.484c-0.209,0.523-0.962,0.648-1.735,0.334
			s-1.191-0.982-0.982-1.484C370.072,236.033,370.846,235.886,371.619,236.2"/>
		<path style="fill:#FFFFFF;" d="M368.672,231.706c0.669,0.272,1.045,0.815,0.857,1.233s-0.899,0.543-1.568,0.272
			c-0.669-0.272-1.066-0.836-0.857-1.254C367.313,231.539,368.003,231.434,368.672,231.706"/>
		<path style="fill:#FFFFFF;" d="M362.861,232.668c0.794,0.314,1.191,0.92,0.962,1.421c-0.491,0.532-1.274,0.677-1.923,0.355
			c-0.794-0.314-1.212-0.92-0.941-1.442C361.445,232.474,362.224,232.337,362.861,232.668"/>
		<path style="fill:#FFFFFF;" d="M360.144,219.854c0.627,0.23,0.941,0.648,0.732,0.962c-0.209,0.314-0.857,0.397-1.505,0.188
			c-0.648-0.209-0.982-0.627-0.753-0.961C359.05,219.696,359.641,219.623,360.144,219.854"/>
		<path style="fill:#FFFFFF;" d="M379.52,218.747c0.543,0.209,0.92,0.585,0.836,0.878c-0.084,0.293-0.564,0.334-1.108,0.125
			c-0.543-0.209-0.92-0.606-0.836-0.899S378.977,218.538,379.52,218.747"/>
		<path style="fill:#FFFFFF;" d="M381.443,223.659c0.669,0.314,1.087,0.857,0.962,1.233c-0.125,0.376-0.773,0.418-1.442,0.105
			s-1.108-0.878-0.962-1.254c0.146-0.376,0.773-0.418,1.442,0"/>
		<path style="fill:#FFFFFF;" d="M382.237,221.777c0.585,0.314,0.962,0.794,0.878,1.129s-0.648,0.355-1.254,0
			c-0.606-0.355-0.982-0.773-0.878-1.108c0.105-0.334,0.669-0.334,1.254,0"/>
		<path style="fill:#FFFFFF;" d="M373.897,230.974c0.648,0.293,1.003,0.815,0.857,1.212c-0.146,0.397-0.794,0.481-1.463,0.209
			s-1.003-0.815-0.836-1.212C372.622,230.786,373.27,230.703,373.897,230.974"/>
		<path style="fill:#FFFFFF;" d="M377.033,224.16c0.523,0.23,0.815,0.648,0.711,0.941s-0.627,0.334-1.171,0
			c-0.543-0.334-0.836-0.669-0.711-0.962c0.125-0.293,0.627-0.334,1.171,0"/>
		<path style="fill:#FFFFFF;" d="M369.027,242.324c0.648,0.272,1.003,0.857,0.815,1.338c-0.344,0.503-1.017,0.658-1.547,0.355
			c-0.648-0.272-1.003-0.857-0.815-1.338C367.818,242.167,368.499,242.011,369.027,242.324"/>
		<path style="fill:#FFFFFF;" d="M380.565,225.874c0.46,0.23,0.753,0.606,0.669,0.878c-0.084,0.272-0.543,0.314-1.024,0
			c-0.481-0.314-0.753-0.606-0.648-0.878S380.105,225.582,380.565,225.874"/>
		<path style="fill:#FFFFFF;" d="M385.414,223.491c0.523,0.272,0.857,0.711,0.794,1.003c-0.063,0.293-0.543,0.334-1.087,0
			c-0.543-0.334-0.878-0.711-0.794-1.024c0.084-0.314,0.543-0.314,1.087,0"/>
		<path style="fill:#FFFFFF;" d="M366.916,225.017c0.648,0.272,1.003,0.752,0.815,1.129s-0.878,0.439-1.526,0.188
			c-0.648-0.251-1.024-0.752-0.836-1.129C365.557,224.829,366.247,224.767,366.916,225.017"/>
		<path style="fill:#FFFFFF;" d="M352.744,214.775c0.543,0.167,0.773,0.481,0.585,0.711c-0.398,0.257-0.894,0.311-1.338,0.146
			c-0.523-0.167-0.773-0.481-0.564-0.711C351.811,214.648,352.31,214.592,352.744,214.775"/>
		<path style="fill:#FFFFFF;" d="M358.263,231.079c0.732,0.251,1.108,0.794,0.857,1.254c-0.472,0.489-1.203,0.624-1.819,0.334
			c-0.732-0.272-1.108-0.794-0.857-1.254C356.919,230.93,357.646,230.796,358.263,231.079"/>
		<path style="fill:#FFFFFF;" d="M351.093,262.809c0.481,0.124,0.77,0.614,0.646,1.095c-0.022,0.086-0.057,0.168-0.103,0.243
			c-0.31,0.552-0.972,0.799-1.568,0.585c-0.489-0.136-0.776-0.642-0.641-1.132c0.022-0.08,0.055-0.156,0.097-0.227
			C349.847,262.836,350.503,262.6,351.093,262.809"/>
		<path style="fill:#FFFFFF;" d="M346.474,265.212c0.404,0.099,0.651,0.506,0.552,0.91c-0.019,0.077-0.05,0.151-0.092,0.219
			c-0.297,0.481-0.879,0.703-1.421,0.543c-0.414-0.104-0.665-0.525-0.561-0.939c0.021-0.082,0.055-0.16,0.101-0.232
			C345.362,265.249,345.941,265.044,346.474,265.212"/>
		<path style="fill:#FFFFFF;" d="M362.819,257.541c0.637,0.218,0.981,0.907,0.773,1.547c-0.309,0.614-1.048,0.872-1.672,0.585
			c-0.628-0.198-0.976-0.867-0.778-1.494c0.008-0.025,0.016-0.049,0.026-0.073C361.483,257.511,362.206,257.264,362.819,257.541"/>
		<path style="fill:#FFFFFF;" d="M356.507,260.238c0.626,0.202,0.971,0.873,0.769,1.499c-0.005,0.016-0.011,0.032-0.016,0.048
			c-0.293,0.619-1.028,0.889-1.651,0.606c-0.635-0.213-0.977-0.9-0.764-1.535c0.004-0.011,0.008-0.022,0.012-0.033
			C355.164,260.221,355.888,259.964,356.507,260.238"/>
		<path style="fill:#FFFFFF;" d="M364.282,230.18c0.502,0.188,0.752,0.564,0.606,0.878c-0.146,0.314-0.69,0.376-1.191,0.188
			c-0.502-0.188-0.773-0.564-0.606-0.878C363.258,230.055,363.781,229.992,364.282,230.18"/>
		<path style="fill:#FFFFFF;" d="M377.284,216.155c0.418,0.188,0.69,0.46,0.627,0.69c-0.063,0.23-0.46,0.23-0.899,0
			c-0.439-0.23-0.711-0.46-0.627-0.69C376.468,215.925,376.845,215.925,377.284,216.155"/>
		<path style="fill:#FFFFFF;" d="M369.487,255.451c0.542,0.188,0.851,0.76,0.711,1.317c-0.231,0.504-0.826,0.725-1.33,0.494
			c-0.01-0.004-0.019-0.009-0.029-0.014c-0.551-0.189-0.856-0.779-0.69-1.338c0.213-0.486,0.78-0.708,1.267-0.495
			C369.44,255.427,369.464,255.438,369.487,255.451"/>
		<path style="fill:#FFFFFF;" d="M375.716,253.34c0.514,0.186,0.815,0.718,0.711,1.254c-0.185,0.436-0.689,0.638-1.124,0.453
			c-0.038-0.016-0.074-0.035-0.109-0.056c-0.52-0.178-0.825-0.717-0.711-1.254c0.185-0.436,0.689-0.638,1.124-0.453
			C375.644,253.3,375.681,253.319,375.716,253.34"/>
		<path style="fill:#FFFFFF;" d="M381.485,252.065c0.479,0.18,0.772,0.663,0.711,1.171c-0.125,0.439-0.606,0.585-1.129,0.355
			c-0.487-0.181-0.783-0.677-0.711-1.191c0.173-0.39,0.63-0.566,1.021-0.393C381.414,252.023,381.45,252.042,381.485,252.065"/>
		<path style="fill:#FFFFFF;" d="M353.309,229.783c0.481,0.167,0.732,0.502,0.543,0.794c-0.334,0.304-0.812,0.393-1.233,0.23
			c-0.502-0.146-0.752-0.481-0.564-0.773C352.389,229.714,352.877,229.616,353.309,229.783"/>
		<path style="fill:#FFFFFF;" d="M356.569,233.399c0.606,0.209,0.899,0.648,0.69,1.024c-0.379,0.408-0.973,0.533-1.484,0.314
			c-0.606-0.209-0.899-0.669-0.69-1.045C355.469,233.291,356.062,233.174,356.569,233.399"/>
		<path style="fill:#FFFFFF;" d="M361.272,235.489c0.523,0.209,0.794,0.606,0.627,0.961c-0.314,0.37-0.838,0.482-1.275,0.272
			c-0.543-0.209-0.815-0.627-0.627-0.982C360.316,235.377,360.84,235.274,361.272,235.489"/>
		<path style="fill:#FFFFFF;" d="M365.913,237.245c0.46,0.209,0.711,0.585,0.564,0.899s-0.627,0.418-1.108,0.23
			c-0.481-0.188-0.732-0.564-0.585-0.899C365.06,237.143,365.529,237.048,365.913,237.245"/>
		<path style="fill:#FFFFFF;" d="M370.365,239.21c0.46,0.188,0.711,0.585,0.585,0.92c-0.244,0.338-0.704,0.437-1.066,0.23
			c-0.46-0.209-0.711-0.606-0.585-0.941C369.424,239.085,369.905,239.022,370.365,239.21"/>
		<path style="fill:#FFFFFF;" d="M380.314,217.325c0.397,0.167,0.69,0.439,0.627,0.669c-0.063,0.23-0.418,0.23-0.836,0
			c-0.418-0.23-0.711-0.418-0.648-0.648c0.063-0.23,0.439-0.251,0.857,0"/>
		<path style="fill:#FFFFFF;" d="M378.12,214.796c0.376,0.167,0.627,0.397,0.564,0.606c-0.063,0.209-0.376,0.209-0.753,0
			c-0.376-0.209-0.627-0.397-0.564-0.606C377.43,214.587,377.743,214.587,378.12,214.796"/>
		<path style="fill:#FFFFFF;" d="M375.82,212.601c0.334,0.146,0.564,0.355,0.523,0.543c-0.042,0.188-0.334,0.188-0.669,0
			c-0.334-0.188-0.564-0.334-0.523-0.523c0.042-0.188,0.334-0.188,0.669,0"/>
		<path style="fill:#FFFFFF;" d="M382.906,220.293c0.439,0.209,0.711,0.543,0.648,0.815c-0.063,0.272-0.46,0.23-0.92,0
			c-0.46-0.23-0.732-0.564-0.648-0.836c0.084-0.272,0.481-0.23,0.92,0"/>
		<path style="fill:#FFFFFF;" d="M351.678,231.978c0.523,0.167,0.753,0.523,0.564,0.836c-0.338,0.328-0.838,0.427-1.275,0.251
			c-0.523-0.146-0.753-0.502-0.564-0.815C350.742,231.923,351.236,231.818,351.678,231.978"/>
		<path style="fill:#FFFFFF;" d="M347.122,230.745c0.481,0.125,0.69,0.418,0.502,0.711c-0.336,0.298-0.803,0.401-1.233,0.272
			c-0.481-0.146-0.711-0.439-0.502-0.711C346.221,230.71,346.692,230.606,347.122,230.745"/>
		<path style="fill:#FFFFFF;" d="M385.874,229.051c-0.146,0.523,0.314,1.233,1.108,1.756c-0.941-0.314-1.714-0.167-1.902,0.439
			c-0.017,0.695,0.312,1.353,0.878,1.756c-0.773-0.146-1.4,0-1.568,0.606c-0.039,0.874,0.434,1.691,1.212,2.09
			c-0.982-0.293-1.798,0-2.09,0.606c-0.091,0.712,0.213,1.417,0.794,1.839c-0.773,0-1.4,0.188-1.568,0.794
			c-0.126,0.826,0.252,1.648,0.962,2.09c-0.899-0.146-1.63,0.146-1.839,0.836c-0.093,1.214,0.633,2.341,1.777,2.759
			c0.775,0.483,1.774,0.407,2.466-0.188c0.23,0.987,0.912,1.808,1.839,2.216c0.647,0.373,1.444,0.373,2.09,0
			c0.335,0.821,0.96,1.491,1.756,1.881c0.637,0.406,1.453,0.406,2.09,0c0.335,0.838,0.968,1.523,1.777,1.923
			c0.623,0.453,1.467,0.453,2.09,0c0.32,0.895,0.961,1.64,1.798,2.09c1.212,0.606,2.09,0.293,2.299-0.69
			c-0.034-0.895-0.463-1.729-1.171-2.278c0.794,0.125,1.359-0.167,1.442-0.878c-0.02-0.804-0.376-1.562-0.982-2.09
			c0.69,0,1.15-0.209,1.212-0.815c-0.071-0.93-0.584-1.77-1.38-2.257c0.899,0.293,1.547,0,1.609-0.627
			c-0.051-0.757-0.433-1.453-1.045-1.902c0.711,0.146,1.191,0,1.254-0.648c-0.105-0.875-0.616-1.649-1.38-2.09
			c0.794,0.272,1.338,0.125,1.4-0.439s-0.648-1.484-1.547-2.09c-0.899-0.606-1.463-0.397-1.714,0
			c-0.236-0.759-0.783-1.382-1.505-1.714c-0.773-0.397-1.442-0.397-1.714,0c-0.291-0.794-0.885-1.44-1.651-1.798
			c-0.878-0.46-1.651-0.439-1.965,0c-0.251-0.723-0.787-1.313-1.484-1.63c-0.962-0.46-1.798-0.439-1.965,0.167l0,0
			c0.125-0.606-0.543-1.421-1.505-1.902c-0.962-0.481-1.86-0.418-2.09,0.167 M398.207,247.215c0.434,0.194,0.724,0.613,0.752,1.087
			c0,0.376-0.439,0.481-0.92,0.251c-0.44-0.197-0.731-0.626-0.752-1.108C397.287,247.069,397.726,246.986,398.207,247.215
			 M394.507,245.418c0.387,0.165,0.64,0.541,0.648,0.961c0,0.334-0.418,0.418-0.836,0.209c-0.398-0.154-0.663-0.534-0.669-0.962
			C393.65,245.292,394.068,245.209,394.507,245.418 M390.849,243.516c0.391,0.148,0.649,0.523,0.648,0.941
			c0,0.334-0.439,0.418-0.878,0.209c-0.398-0.151-0.658-0.536-0.648-0.961C389.971,243.39,390.431,243.307,390.849,243.516
			 M387.484,242.492c0,0.376-0.543,0.46-1.024,0.23c-0.452-0.156-0.749-0.589-0.732-1.066c0.105-0.355,0.543-0.439,1.045-0.209
			C387.209,241.607,387.495,242.027,387.484,242.492 M398.771,244.582c0.385,0.159,0.645,0.525,0.669,0.941
			c0,0.314-0.397,0.397-0.794,0.188c-0.385-0.159-0.645-0.525-0.669-0.941C397.977,244.456,398.374,244.373,398.771,244.582
			 M387.4,238.896c0.439,0.209,0.711,0.606,0.648,0.899s-0.481,0.397-0.899,0.188c-0.418-0.209-0.711-0.627-0.648-0.92
			C386.564,238.771,386.982,238.687,387.4,238.896 M399.105,241.844c0.361,0.162,0.608,0.505,0.648,0.899
			c0,0.293-0.376,0.355-0.773,0.167c-0.397-0.188-0.69-0.606-0.648-0.899S398.708,241.635,399.105,241.844 M388.069,236.263
			c0.397,0.209,0.669,0.585,0.606,0.878s-0.439,0.334-0.857,0.146c-0.418-0.188-0.69-0.585-0.627-0.878
			C387.254,236.116,387.651,236.075,388.069,236.263 M399.398,239.335c0.355,0.148,0.602,0.475,0.648,0.857
			c0,0.293-0.355,0.334-0.753,0.146c-0.361-0.152-0.609-0.489-0.648-0.878C398.646,239.189,399.022,239.147,399.398,239.335
			 M388.675,233.88c0.397,0.209,0.648,0.543,0.585,0.836c-0.063,0.293-0.418,0.314-0.815,0c-0.397-0.314-0.69-0.543-0.627-0.836
			c0.063-0.293,0.439-0.293,0.857-0.105 M399.628,236.639c0.372,0.168,0.633,0.515,0.69,0.92c0,0.272-0.376,0.334-0.794,0.125
			c-0.383-0.159-0.653-0.509-0.711-0.92C398.813,236.493,399.21,236.43,399.628,236.639 M396.325,234.988
			c0.335,0.131,0.568,0.437,0.606,0.794c0,0.272-0.376,0.293-0.753,0.105c-0.376-0.188-0.732-0.543-0.732-0.732s0.376-0.293,0.752,0
			 M392.856,233.441c0.376,0.188,0.627,0.502,0.585,0.773c-0.042,0.272-0.376,0.293-0.773,0.105
			c-0.397-0.188-0.648-0.523-0.585-0.794c0.063-0.272,0.376-0.272,0.773,0 M389.177,231.372c0.439,0.209,0.732,0.585,0.669,0.878
			c-0.063,0.293-0.46,0.314-0.899,0s-0.732-0.606-0.669-0.899c0.063-0.293,0.481-0.314,0.899,0"/>
	</g>
</g>
</svg>
