<svg xmlns="http://www.w3.org/2000/svg" viewBox="0 0 478.32 125.53"><defs><style>.cls-1{fill:#3492c9;}</style></defs><g id="Layer_2" data-name="Layer 2"><g id="Layer_1-2" data-name="Layer 1"><path class="cls-1" d="M214.93,53.61v18.3q0,18.3,18.3,18.3h36.59V60.93h-11v18.3H234.76q-8.85,0-8.85-8.82V55.08q0-8.79,8.82-8.78h35.09v-11H233.23Q214.93,35.32,214.93,53.61Z"/><rect class="cls-1" x="280.8" y="35.32" width="10.98" height="54.89"/><polygon class="cls-1" points="149.06 35.32 149.06 46.3 149.06 57.27 149.06 68.25 149.06 79.23 149.06 90.21 160.04 90.21 203.95 90.21 203.95 79.23 160.04 79.23 160.04 68.25 203.95 68.25 203.95 57.27 160.04 57.27 160.04 46.3 203.95 46.3 203.95 35.32 160.04 35.32 149.06 35.32"/><path class="cls-1" d="M302.75,53.61v18.3q0,18.3,18.3,18.3h36.59v-11H322.59q-8.86,0-8.86-8.82V55.08q0-8.79,8.82-8.78h35.09v-11H321.05Q302.75,35.32,302.75,53.61Z"/><polygon class="cls-1" points="388.31 35.32 364.48 90.21 376.45 90.21 394.27 49.11 412.13 90.21 424.06 90.21 400.24 35.32 388.31 35.32"/><polygon class="cls-1" points="423.43 35.32 423.47 46.3 445.39 46.3 445.39 90.21 456.37 90.21 456.37 46.3 478.32 46.3 478.32 35.32 423.43 35.32"/><path class="cls-1" d="M328.8,107.38l.54.39a7.68,7.68,0,0,0,1.4.61,6.13,6.13,0,0,0,2.12.38,3.32,3.32,0,0,0,2.08-.53,1.75,1.75,0,0,0,.68-1.44,1.61,1.61,0,0,0-.67-1.35,8.76,8.76,0,0,0-2.57-1.08,10.1,10.1,0,0,1-3.62-1.7,3.19,3.19,0,0,1-1.13-2.57,3.6,3.6,0,0,1,1.38-3,6,6,0,0,1,3.87-1.1,10.14,10.14,0,0,1,2.82.37,5.49,5.49,0,0,1,1.71.73l.45.36-1.29,1.93a2.33,2.33,0,0,0-.44-.34,7.13,7.13,0,0,0-1.25-.52,6.09,6.09,0,0,0-2-.34,3.45,3.45,0,0,0-1.94.47,1.49,1.49,0,0,0-.71,1.32,1.35,1.35,0,0,0,.67,1.17,10.1,10.1,0,0,0,2.5,1,9.18,9.18,0,0,1,3.72,1.77,3.46,3.46,0,0,1,1.12,2.69,4,4,0,0,1-1.37,3.12,5.75,5.75,0,0,1-3.94,1.22,10.46,10.46,0,0,1-2-.18,7,7,0,0,1-1.54-.45c-.39-.19-.74-.36-1.05-.54a3.51,3.51,0,0,1-.64-.45l-.22-.17Z"/><path class="cls-1" d="M345.53,110.63h-2.36V96.32h2.36Z"/><path class="cls-1" d="M363.81,110.63h-1.76l-8.23-10.16v10.16h-2.36V96.32h1.79l8.2,10.11V96.32h2.36Z"/><path class="cls-1" d="M380.85,109.15l-.19.19a6.06,6.06,0,0,1-.56.44,5.93,5.93,0,0,1-1,.56,7,7,0,0,1-1.35.43A7.66,7.66,0,0,1,376,111a6.8,6.8,0,0,1-5.22-2.15,8.06,8.06,0,0,1,0-10.65A6.8,6.8,0,0,1,376,96a8.27,8.27,0,0,1,1.76.18,6,6,0,0,1,1.36.44,7.89,7.89,0,0,1,.93.54,5.24,5.24,0,0,1,.59.44l.17.19-1.36,1.84c-.09-.1-.23-.23-.4-.39a5.4,5.4,0,0,0-1.16-.62,4.71,4.71,0,0,0-1.85-.38,4.45,4.45,0,0,0-3.45,1.5,5.38,5.38,0,0,0-1.36,3.75,5.27,5.27,0,0,0,1.36,3.7,4.44,4.44,0,0,0,3.45,1.49,5.06,5.06,0,0,0,1.82-.33,3.53,3.53,0,0,0,1.21-.69l.38-.33Z"/><path class="cls-1" d="M394.46,104.38h-6.65v4.15h7.82v2.1H385.45V96.32h10.18v2.1h-7.82v4h6.65Z"/><path class="cls-1" d="M406.78,96.32h5.48v14.31H409.9V98.42h-3.12Z"/><path class="cls-1" d="M424.63,107.59a5.46,5.46,0,0,0,.76-3.5v-.16a4.2,4.2,0,0,1-3.34,1.4,5.08,5.08,0,0,1-3.56-1.24,4.11,4.11,0,0,1-1.37-3.19,4.51,4.51,0,0,1,1.48-3.45,5.72,5.72,0,0,1,7.82.37c1,1.16,1.57,3,1.57,5.44a9.14,9.14,0,0,1-1.54,5.65,5,5,0,0,1-4.23,2,6.81,6.81,0,0,1-1.66-.19,4.84,4.84,0,0,1-1.25-.46,7.47,7.47,0,0,1-.83-.55,2.62,2.62,0,0,1-.5-.46l-.15-.19,1.34-1.84.29.27a4.11,4.11,0,0,0,.46.4c.15.11.34.23.56.37a3,3,0,0,0,.79.32,3.69,3.69,0,0,0,1,.12A2.86,2.86,0,0,0,424.63,107.59Zm-.33-4.93a2.64,2.64,0,0,0,.95-1.76c-.35-1.77-1.32-2.65-2.91-2.65a2.71,2.71,0,0,0-2,.75,2.53,2.53,0,0,0-.76,1.88,2.32,2.32,0,0,0,.74,1.76,2.73,2.73,0,0,0,2,.69A3,3,0,0,0,424.3,102.66Z"/><path class="cls-1" d="M432.06,96.32h9.87V98l-6.17,12.66H433l6.1-12.21h-7Z"/><path class="cls-1" d="M453,107.59a5.46,5.46,0,0,0,.77-3.5v-.16a4.21,4.21,0,0,1-3.34,1.4,5.11,5.11,0,0,1-3.57-1.24,4.11,4.11,0,0,1-1.37-3.19A4.51,4.51,0,0,1,447,97.45a5.72,5.72,0,0,1,7.82.37q1.57,1.74,1.57,5.44a9.21,9.21,0,0,1-1.53,5.65,5,5,0,0,1-4.24,2,6.73,6.73,0,0,1-1.65-.19,4.57,4.57,0,0,1-1.25-.46,7.66,7.66,0,0,1-.84-.55,3,3,0,0,1-.5-.46l-.14-.19,1.33-1.84.29.27a5.24,5.24,0,0,0,.46.4c.15.11.34.23.56.37a3.34,3.34,0,0,0,.79.32,3.69,3.69,0,0,0,1,.12A2.85,2.85,0,0,0,453,107.59Zm-.33-4.93a2.6,2.6,0,0,0,.95-1.76c-.35-1.77-1.32-2.65-2.91-2.65a2.71,2.71,0,0,0-2,.75,2.56,2.56,0,0,0-.76,1.88,2.32,2.32,0,0,0,.74,1.76,2.76,2.76,0,0,0,2,.69A3,3,0,0,0,452.68,102.66Z"/><path class="cls-1" d="M62.75,0a62.28,62.28,0,0,0-48,22.37s0,0,0,0A52.16,52.16,0,0,0,9.24,30c-.49.79-1,1.59-1.43,2.46l-.09.17a62.25,62.25,0,0,0-2.78,5.7l-.58,1.37,1.26.79a48.06,48.06,0,0,0,7.27,3.74,49,49,0,0,0,18.85,3.73c1.09,0,2.22,0,3.33-.12H95.72V35.38H31.55c-1,0-1.91,0-2.86-.13-.36,0-.71-.09-1.07-.13-.58-.06-1.17-.11-1.75-.21-.39-.06-.78-.15-1.17-.23s-1.08-.2-1.61-.32S22.33,34.13,22,34s-1-.27-1.55-.43a51.4,51.4,0,0,1,92.09,42.18,48.85,48.85,0,0,1,7.8,2.25c1,.38,2,.82,3,1.28A62.76,62.76,0,0,0,62.75,0Z"/><path class="cls-1" d="M112.63,81.3a49,49,0,0,0-18.85-3.73c-1.1,0-2.23,0-3.33.12H29.8V90.12H94a36.73,36.73,0,0,1,11,1.75l.11,0A51.39,51.39,0,0,1,13,49.74a49,49,0,0,1-7.81-2.26c-1-.38-2-.81-3-1.27a62.74,62.74,0,0,0,108.56,56.92l0,0a52.32,52.32,0,0,0,5.53-7.57c.48-.79,1-1.59,1.39-2.39l.13-.24c1-1.9,2-3.82,2.78-5.7l.58-1.37L119.9,85A49,49,0,0,0,112.63,81.3Z"/><rect class="cls-1" x="29.8" y="56.53" width="65.91" height="12.43"/></g></g></svg>