<svg xmlns="http://www.w3.org/2000/svg" height="500" width="500" id="svg2" viewBox="0 0 500 500"><defs id="defs6"><linearGradient id="linearGradient30" spreadMethod="pad" gradientTransform="matrix(-169.41554,169.41554,169.41554,169.41554,350.44067,381.2836)" gradientUnits="userSpaceOnUse" y2="0" x2="1" y1="0" x1="0"><stop id="stop24" offset="0" style="stop-opacity:1;stop-color:#00a995"></stop><stop id="stop26" offset="0.5" style="stop-opacity:1;stop-color:#006eb9"></stop><stop id="stop28" offset="1" style="stop-opacity:1;stop-color:#00aa4f"></stop></linearGradient><linearGradient id="linearGradient52" spreadMethod="pad" gradientTransform="matrix(-197.71805,197.75395,197.75395,197.71805,350.64337,226.61649)" gradientUnits="userSpaceOnUse" y2="0" x2="1" y1="0" x1="0"><stop id="stop46" offset="0" style="stop-opacity:1;stop-color:#00a995"></stop><stop id="stop48" offset="0.5" style="stop-opacity:1;stop-color:#006eb9"></stop><stop id="stop50" offset="1" style="stop-opacity:1;stop-color:#00aa4f"></stop></linearGradient></defs><g id="g12" transform="matrix(1.633201, 0, 0, -1.633201, -183.614639, 889.018372)" style=""><g id="g14"><g id="g20"><g id="g22"><path id="path32" style="fill:url(#linearGradient30);stroke:none" d="m 342.806,531.882 c -16.803,-10e-4 -33.609,-6.38 -46.367,-19.138 v 0 l -25.283,-25.282 c -1.215,-1.216 -2.77,-2.002 -4.464,-2.277 v 0 c -0.887,-0.143 -1.797,-0.144 -2.685,0 v 0 c -1.698,0.273 -3.255,1.061 -4.472,2.277 v 0 l -25.285,25.285 c -25.525,25.525 -67.221,25.503 -92.731,-0.006 v 0 c -25.515,-25.515 -25.516,-67.211 -0.001,-92.726 v 0 l 0.55,-0.549 c 21.81,-21.811 43.62,-43.621 65.429,-65.431 v 0 l 11.041,-11.041 c 4.706,-4.686 9.84,-8.618 15.713,-11.771 v 0 c 8.666,-4.658 18.214,-7.263 28.036,-7.704 v 0 c 0.82,-0.037 1.641,-0.059 2.461,-0.063 v 0 c 1.213,-0.014 2.427,0.008 3.635,0.063 v 0 c 9.862,0.443 19.357,3.034 28.042,7.718 v 0 c 5.117,2.763 9.768,6.143 13.989,10.132 v 0 c 0.614,0.582 1.247,1.135 1.845,1.733 v 0 l 10.908,10.908 c 21.819,21.819 43.638,43.638 65.457,65.457 v 0 l 0.397,0.397 0.226,0.225 c 25.451,25.533 25.41,67.17 -0.078,92.657 v 0 c -12.757,12.757 -29.557,19.135 -46.359,19.136 v 0 c -0.002,0 -0.002,0 -0.004,0 m -74.574,-68.266 c 6.893,0.663 13.297,3.673 18.198,8.573 v 0 l 25.282,25.282 c 17.09,17.091 45.108,17.081 62.188,-10e-4 v 0 c 17.085,-17.084 17.084,-45.102 0,-62.186 v 0 l -0.547,-0.546 c -21.818,-21.82 -43.628,-43.648 -65.444,-65.471 v 0 l -11.866,-11.872 c -1.181,-1.162 -2.45,-2.273 -3.781,-3.304 v 0 c -6.789,-5.262 -15.003,-8.361 -23.555,-8.996 v 0 c -2.201,-0.165 -4.418,-0.158 -6.619,0.007 v 0 c -11.294,0.854 -20.602,5.488 -28.393,13.28 v 0 c -25.451,25.452 -50.901,50.902 -76.355,76.356 v 0 l -0.55,0.549 c -17.09,17.091 -17.075,45.106 0.004,62.183 v 0 c 17.083,17.084 45.102,17.087 62.183,0.005 v 0 l 25.286,-25.286 c 4.906,-4.905 11.321,-7.918 18.225,-8.575 v 0 c 0.952,-0.091 1.908,-0.136 2.864,-0.136 v 0 c 0.961,0 1.922,0.046 2.88,0.138"></path></g></g></g></g><g id="g34" transform="matrix(1.633201, 0, 0, -1.633201, -183.614639, 889.018372)" style=""><g id="g36"><g id="g42"><g id="g44"><path id="path54" style="fill:url(#linearGradient52);stroke:none" d="m 262.511,454.584 c -9.86,-0.441 -19.357,-3.032 -28.043,-7.717 v 0 c -5.116,-2.759 -9.768,-6.142 -13.989,-10.133 v 0 c -0.583,-0.551 -1.187,-1.076 -1.758,-1.64 v 0 l -7.513,-7.513 -3.483,-3.483 -4.913,-4.912 -8.414,-8.415 15.261,-15.261 13.323,13.331 11.868,11.871 c 1.183,1.16 2.449,2.272 3.781,3.303 v 0 c 6.79,5.261 15.002,8.362 23.556,8.995 v 0 c 2.201,0.164 4.416,0.16 6.618,-0.006 v 0 c 8.447,-0.639 16.456,-3.672 23.255,-8.723 v 0 l 0.47,-0.35 c 1.655,-1.302 3.175,-2.714 4.669,-4.209 v 0 L 321.232,395.689 336.5,410.966 312.466,435 c -4.734,4.735 -9.902,8.703 -15.823,11.882 v 0 c -8.666,4.657 -18.215,7.264 -28.036,7.705 v 0 c -0.819,0.037 -1.639,0.059 -2.46,0.064 v 0 c -0.205,0.002 -0.41,0.003 -0.615,0.003 v 0 c -1.009,0 -2.016,-0.023 -3.021,-0.07 m 87.076,-87.249 23.968,-23.968 0.547,-0.548 c 17.091,-17.09 17.075,-45.105 -0.004,-62.184 v 0 c -17.083,-17.084 -45.099,-17.086 -62.182,-0.003 v 0 l -25.286,25.285 c -4.905,4.905 -11.32,7.915 -18.224,8.574 v 0 c -1.91,0.183 -3.833,0.18 -5.743,-10e-4 v 0 c -6.895,-0.664 -13.298,-3.675 -18.197,-8.574 v 0 l -25.284,-25.283 c -17.091,-17.091 -45.108,-17.077 -62.188,0.001 v 0 c -17.084,17.086 -17.084,45.101 0,62.186 v 0 l 0.548,0.548 23.763,23.77 -15.271,15.27 -24.39,-24.389 c -25.451,-25.535 -25.407,-67.172 0.082,-92.66 v 0 c 25.516,-25.516 67.212,-25.513 92.727,0.003 v 0 l 25.283,25.283 c 1.215,1.215 2.77,2.001 4.464,2.276 v 0 c 0.89,0.142 1.799,0.143 2.686,0 v 0 c 1.699,-0.274 3.253,-1.057 4.472,-2.277 v 0 l 25.286,-25.284 c 25.469,-25.471 67.039,-25.506 92.563,-0.165 v 0 l 0.336,0.337 c 25.292,25.474 25.289,66.919 -0.001,92.393 v 0 l -0.564,0.564 -0.151,0.15 -23.968,23.968 z"></path></g></g></g></g></svg>